<?xml version="1.0" encoding="utf-8"?>
<!-- Generator: Adobe Illustrator 25.2.0, SVG Export Plug-In . SVG Version: 6.00 Build 0)  -->
<svg version="1.1" id="Layer_1" xmlns="http://www.w3.org/2000/svg" xmlns:xlink="http://www.w3.org/1999/xlink" x="0px" y="0px"
	 viewBox="0 0 36 36" style="enable-background:new 0 0 36 36;" xml:space="preserve">
<style type="text/css">
	.st0{fill:#FFFFFF;}
	.st1{fill:#EA8397;stroke:#D26B7F;stroke-width:2;stroke-miterlimit:10;}
	.st2{fill:#FEECAC;stroke:#D26B7F;stroke-width:2;stroke-miterlimit:10;}
</style>
<g>
	<circle class="st0" cx="18" cy="18" r="18"/>
</g>
<g>
	<path class="st1" d="M26.199,18.712c-0.356-0.245-0.575-0.642-0.589-1.072s0.178-0.839,0.514-1.109
		c0.128-0.1,0.25-0.211,0.364-0.325c1.47-1.47,1.614-3.815,0.331-5.46c-1.395-1.784-3.987-2.109-5.779-0.722
		c-0.342,0.264-0.786,0.347-1.2,0.228c-0.417-0.117-0.747-0.425-0.897-0.831c-0.784-2.123-3.156-3.223-5.285-2.445
		c-0.572,0.206-1.081,0.531-1.506,0.956c-1.125,1.125-1.506,2.817-0.97,4.315c0.144,0.406,0.089,0.856-0.153,1.214
		c-0.239,0.356-0.636,0.575-1.067,0.595c-1.042,0.042-2.02,0.47-2.753,1.203c-0.82,0.82-1.248,1.909-1.206,3.067
		c0.075,2.264,1.984,4.051,4.245,3.984c0.431-0.014,0.842,0.181,1.109,0.52c0.267,0.339,0.353,0.786,0.236,1.197
		c-0.614,2.181,0.661,4.462,2.837,5.087c1.442,0.414,3.001,0.011,4.062-1.05c0.486-0.486,0.845-1.095,1.042-1.759
		c0.064-0.219,0.181-0.42,0.339-0.578c0.139-0.139,0.308-0.247,0.497-0.314c0.403-0.147,0.856-0.094,1.211,0.144
		c1.634,1.089,3.826,0.875,5.21-0.508c0.186-0.186,0.356-0.395,0.506-0.617C28.563,22.554,28.071,19.99,26.199,18.712z"/>
	<circle class="st2" cx="17.501" cy="18.265" r="3.772"/>
</g>
</svg>
