<?xml version="1.0" encoding="utf-8"?>
<!-- Generator: Adobe Illustrator 25.2.1, SVG Export Plug-In . SVG Version: 6.00 Build 0)  -->
<svg version="1.1" id="Layer_1" xmlns="http://www.w3.org/2000/svg" xmlns:xlink="http://www.w3.org/1999/xlink" x="0px" y="0px"
	 viewBox="0 0 36 36" style="enable-background:new 0 0 36 36;" xml:space="preserve">
<style type="text/css">
	.st0{fill:url(#SVGID_1_);}
</style>
<g>
	<g>
		<circle cx="18" cy="18" r="18"/>
	</g>
</g>
<linearGradient id="SVGID_1_" gradientUnits="userSpaceOnUse" x1="9.0006" y1="18" x2="29.0006" y2="18">
	<stop  offset="0" style="stop-color:#FF9C00"/>
	<stop  offset="1" style="stop-color:#FFE226"/>
</linearGradient>
<path class="st0" d="M26.306,13.339c-1.881-2.013-4.535-3.17-7.283-3.177l-2.028,0c-0.758-2.493-3.197-4.323-6.082-4.323H9.001
	v1.912v12.41c0,0.306,0.015,0.612,0.045,0.936c0.23,2.467,1.369,4.753,3.205,6.436c1.849,1.695,4.246,2.628,6.75,2.628
	c0.298,0,0.6-0.013,0.898-0.04c4.857-0.428,8.761-4.424,9.08-9.293C29.161,18.038,28.212,15.379,26.306,13.339z M27.07,20.703
	c-0.258,3.939-3.407,7.167-7.339,7.513c-0.246,0.022-0.489,0.032-0.73,0.032c-4.204,0-7.667-3.224-8.051-7.329
	c-0.023-0.25-0.037-0.502-0.037-0.758V7.751c2.437,0,4.413,1.814,4.413,4.052v1.157v7.201c0,0.362,0.055,0.711,0.153,1.042
	c0.451,1.52,1.857,2.632,3.522,2.632c0.228,0,0.462-0.021,0.698-0.065c1.462-0.271,2.638-1.445,2.911-2.906
	c0.434-2.327-1.343-4.365-3.59-4.377h-2.211v-4.413h2.211C23.649,12.085,27.378,16.006,27.07,20.703z M17.238,20.162V18.4h1.78
	c0.513,0.003,1.005,0.237,1.341,0.643c0.196,0.237,0.505,0.744,0.369,1.471c-0.127,0.684-0.694,1.25-1.379,1.377
	c-0.117,0.022-0.235,0.033-0.35,0.033c-0.773,0-1.468-0.519-1.688-1.263C17.263,20.495,17.238,20.327,17.238,20.162z"/>
</svg>
