<?xml version="1.0" encoding="utf-8"?>
<!-- Generator: Adobe Illustrator 25.2.0, SVG Export Plug-In . SVG Version: 6.00 Build 0)  -->
<svg version="1.1" id="Layer_1" xmlns="http://www.w3.org/2000/svg" xmlns:xlink="http://www.w3.org/1999/xlink" x="0px" y="0px"
	 viewBox="0 0 36 36" style="enable-background:new 0 0 36 36;" xml:space="preserve">
<style type="text/css">
	.st0{fill:#F8B153;}
	.st1{fill:#FFFFFF;}
</style>
<circle class="st0" cx="18" cy="18" r="18"/>
<g>
	<path class="st1" d="M21.564,29c-3.264,0-6.527,0-9.791,0c-0.555-0.3-0.639-0.792-0.631-1.373c0.024-1.75,0.009-3.501,0.009-5.251
		c0-0.431,0.003-0.862-0.002-1.292c-0.002-0.143,0.034-0.225,0.196-0.224c1.338,0.002,2.676-0.002,4.014,0.009
		c0.064,0.001,0.161,0.113,0.183,0.19c0.032,0.11,0.008,0.236,0.008,0.355c0,0.871-0.003,1.741,0.001,2.612
		c0.002,0.384,0.138,0.569,0.446,0.569c1.613,0.004,3.227,0.025,4.839-0.012c1.088-0.025,1.99-0.99,2.038-2.082
		c0.054-1.233-0.948-2.285-2.2-2.292c-1.384-0.008-2.768-0.009-4.152,0.004c-0.27,0.002-0.337-0.082-0.335-0.343
		c0.013-1.255,0.012-2.511,0-3.767c-0.002-0.243,0.065-0.312,0.307-0.31c1.384,0.011,2.768,0.006,4.152,0.005
		c1.235-0.001,2.225-0.969,2.229-2.176c0.004-1.215-0.997-2.203-2.234-2.204c-1.485-0.001-2.97,0-4.454,0
		c-0.504,0-0.636,0.128-0.637,0.63c-0.001,0.944-0.005,1.888,0.004,2.832c0.002,0.203-0.06,0.272-0.266,0.271
		c-1.292-0.007-2.585-0.007-3.877-0.001c-0.206,0.001-0.265-0.073-0.265-0.274c0.006-2.3,0.003-4.601,0.005-6.901
		c0-0.401,0.178-0.701,0.547-0.879c0.048-0.023,0.087-0.065,0.13-0.098c3.209,0,6.417,0,9.626,0
		c0.263,0.067,0.527,0.131,0.789,0.202c2.613,0.712,4.272,2.39,4.87,5.019c0.47,2.065-0.02,3.96-1.366,5.613
		c-0.109,0.133-0.108,0.212,0.002,0.347c0.975,1.198,1.494,2.565,1.519,4.118c0.05,3.078-1.987,5.748-4.971,6.504
		C22.052,28.865,21.808,28.934,21.564,29z M19.353,17.997c-0.005,0.288,0.222,0.533,0.505,0.544
		c0.291,0.011,0.549-0.241,0.548-0.534c-0.001-0.281-0.245-0.529-0.525-0.535C19.608,17.466,19.359,17.714,19.353,17.997z
		 M17.806,18.541c0.273,0.022,0.546-0.211,0.568-0.485c0.023-0.288-0.215-0.567-0.5-0.584c-0.269-0.016-0.536,0.224-0.559,0.501
		C17.293,18.24,17.535,18.519,17.806,18.541z"/>
	<path class="st1" d="M15.551,17.997c0,0.586,0.002,1.173-0.001,1.759c-0.002,0.363-0.093,0.452-0.461,0.452
		c-1.154,0.001-2.309,0.001-3.463,0c-0.368,0-0.475-0.106-0.475-0.475c-0.002-1.145-0.001-2.29,0-3.435
		c0-0.384,0.111-0.497,0.484-0.498c1.145-0.001,2.29-0.001,3.436,0c0.39,0,0.478,0.092,0.479,0.493
		C15.552,16.861,15.551,17.429,15.551,17.997z M12.095,17.977c0,0.321,0.01,0.642-0.003,0.962c-0.01,0.235,0.076,0.332,0.315,0.329
		c0.632-0.008,1.264-0.007,1.896,0c0.23,0.003,0.348-0.077,0.324-0.321c-0.008-0.082-0.006-0.165,0-0.247
		c0.01-0.166-0.065-0.229-0.228-0.225c-0.238,0.006-0.477,0.009-0.714-0.006c-0.279-0.017-0.475-0.228-0.466-0.477
		c0.009-0.242,0.198-0.432,0.468-0.447c0.219-0.012,0.44-0.017,0.659-0.002c0.216,0.015,0.308-0.061,0.283-0.279
		c-0.009-0.081-0.006-0.165-0.001-0.247c0.012-0.191-0.086-0.265-0.264-0.265c-0.669,0-1.337,0.001-2.006-0.001
		c-0.181,0-0.268,0.073-0.263,0.264C12.101,17.336,12.095,17.657,12.095,17.977z"/>
	<path class="st1" d="M10.508,18.027c0,0.641,0.005,1.283-0.006,1.924c-0.001,0.085-0.079,0.236-0.132,0.241
		c-0.772,0.074-1.506,0.005-2.052-0.649c-0.352-0.422-0.594-0.9-0.744-1.426c-0.017-0.059-0.025-0.131-0.008-0.188
		c0.202-0.689,0.511-1.314,1.091-1.77c0.51-0.401,1.11-0.38,1.707-0.345c0.052,0.003,0.135,0.152,0.137,0.234
		C10.513,16.708,10.508,17.367,10.508,18.027z"/>
</g>
</svg>
