<?xml version="1.0" encoding="utf-8"?>
<!-- Generator: Adobe Illustrator 25.2.0, SVG Export Plug-In . SVG Version: 6.00 Build 0)  -->
<svg version="1.1" id="Layer_1" xmlns="http://www.w3.org/2000/svg" xmlns:xlink="http://www.w3.org/1999/xlink" x="0px" y="0px"
	 viewBox="0 0 36 36" style="enable-background:new 0 0 36 36;" xml:space="preserve">
<style type="text/css">
	.st0{fill:#F7F0E6;}
</style>
<g>
	<g>
		<circle class="st0" cx="18" cy="18" r="18"/>
	</g>
</g>
<g>
	<path d="M15.039,20.104c0.007,0,0.013,0,0.019,0c0.607,0,1.125-0.516,1.136-1.136c0.006-0.312-0.112-0.609-0.331-0.833
		c-0.217-0.221-0.505-0.345-0.812-0.346c-0.003,0-0.005,0-0.007,0c-0.304,0-0.614,0.138-0.83,0.371
		c-0.202,0.217-0.301,0.497-0.28,0.788C13.932,19.596,14.405,20.092,15.039,20.104z"/>
	<path d="M27.752,11.154c-0.174-0.181-0.426-0.273-0.751-0.275l-3.034-0.022c-0.03,0-0.06-0.001-0.091-0.003
		c-0.001-0.026-0.002-0.051-0.002-0.076l0.001-0.4c0.002-0.346,0.003-0.693-0.004-1.039c-0.006-0.215-0.021-0.466-0.087-0.698
		c-0.29-1.083-1.406-1.747-2.532-1.523c-0.864,0.177-1.589,0.976-1.652,1.82c-0.031,0.429-0.036,0.864-0.04,1.284l-0.007,0.514
		c-0.001,0.033-0.003,0.067-0.004,0.1H16.44l0.003-0.604c0.003-0.358,0.007-0.717-0.006-1.075c-0.026-0.698-0.363-1.321-0.924-1.71
		c-0.559-0.388-1.267-0.48-1.943-0.256c-0.875,0.292-1.456,1.143-1.445,2.118c0.006,0.485,0.003,0.973,0,1.462
		c0,0.027-0.001,0.055-0.003,0.082h-0.116c-1.011,0.006-2.022,0.013-3.033,0.022c-0.303,0.002-0.566,0.108-0.741,0.298
		c-0.171,0.186-0.25,0.437-0.229,0.725c0.023,0.317,0.113,0.628,0.207,0.917c0.486,1.495,1.398,2.589,2.709,3.253
		c0.181,0.092,0.214,0.149,0.212,0.364c-0.009,2.638-0.012,5.274,0,7.915c0.004,0.447,0.051,0.823,0.145,1.149
		c0.247,0.855,0.676,1.595,1.243,2.141c0.706,0.68,1.729,1.134,2.808,1.247c0.041,0.003,0.081,0.01,0.122,0.017
		c0.08,0.014,0.16,0.026,0.241,0.027l3.892-0.019c0.562-0.002,1.069-0.01,1.575-0.091c0.29-0.046,0.547-0.111,0.784-0.198
		c0.287-0.104,0.51-0.247,0.707-0.387c0.118-0.083,0.232-0.17,0.345-0.26c0.472-0.375,0.802-0.708,1.071-1.08
		c0.278-0.387,0.486-0.8,0.619-1.23c0.101-0.329,0.155-0.707,0.158-1.091c0.01-1.517,0.008-3.032,0.007-4.547l-0.001-1.516
		l0.001-0.077c0.001-0.057,0.002-0.115-0.001-0.16l0.022-1.947l-0.011-0.073c-0.014-0.041-0.013-0.061-0.015-0.062
		c0.003-0.003,0.016-0.015,0.052-0.029c0.071-0.027,0.142-0.058,0.211-0.093c1.115-0.574,1.959-1.498,2.509-2.745
		c0.177-0.403,0.367-0.876,0.384-1.396C28.01,11.596,27.927,11.336,27.752,11.154z M21.257,9.317
		c0.003-0.136,0.023-0.237,0.061-0.309c0.069-0.135,0.319-0.237,0.446-0.214c0.224,0.037,0.384,0.193,0.387,0.378
		c0.008,0.484,0.007,0.592,0.004,0.83l-0.011,0.43h-0.886c-0.001-0.004-0.001-0.009-0.001-0.013l-0.003-0.412
		C21.253,9.809,21.253,9.761,21.257,9.317z M20.405,18.159c0.216-0.233,0.526-0.371,0.83-0.371c0.002,0,0.004,0,0.007,0
		c0.307,0.002,0.595,0.125,0.812,0.346c0.219,0.224,0.337,0.52,0.331,0.833c-0.011,0.621-0.53,1.136-1.136,1.136
		c-0.006,0-0.012,0-0.019,0c-0.634-0.012-1.107-0.508-1.105-1.156C20.104,18.656,20.203,18.376,20.405,18.159z M13.741,9.317
		c0.003-0.135,0.023-0.236,0.061-0.31c0.067-0.133,0.31-0.234,0.445-0.214c0.224,0.037,0.384,0.193,0.388,0.378
		c0.008,0.477,0.007,0.589,0.004,0.82l-0.01,0.44h-0.887c0-0.005-0.001-0.009-0.001-0.013l-0.003-0.395
		C13.737,9.811,13.737,9.774,13.741,9.317z M10.219,12.639c-0.001-0.005-0.003-0.01-0.005-0.015h0
		C10.216,12.629,10.218,12.634,10.219,12.639L10.219,12.639z M22.888,24.839c-0.195,0.879-0.694,1.495-1.527,1.879
		c-0.331,0.152-0.702,0.223-1.167,0.223c-1.433,0-2.866,0-4.303,0.003c-0.727-0.023-1.27-0.153-1.728-0.492
		c-0.756-0.556-1.124-1.311-1.124-2.306v-8.448l0.001-0.077c0-0.057,0.001-0.114-0.001-0.173c-0.02-0.467-0.283-0.781-0.778-0.934
		c-0.835-0.257-1.473-0.804-1.946-1.667h6.572v0.231c0.001,0.196-0.002,0.391-0.005,0.587c-0.006,0.437-0.013,0.889,0.024,1.337
		c0.091,1.138,0.398,2.289,0.911,3.421c0.459,1.014,1.06,1.909,1.789,2.66c0.99,1.019,2.098,1.718,3.335,2.092
		c-0.004,0.184,0,0.369,0.005,0.553C22.957,24.114,22.967,24.479,22.888,24.839z"/>
</g>
</svg>
