<?xml version="1.0" encoding="utf-8"?>
<!-- Generator: Adobe Illustrator 25.2.1, SVG Export Plug-In . SVG Version: 6.00 Build 0)  -->
<svg version="1.1" id="Layer_1" xmlns="http://www.w3.org/2000/svg" xmlns:xlink="http://www.w3.org/1999/xlink" x="0px" y="0px"
	 viewBox="0 0 36 36" style="enable-background:new 0 0 36 36;" xml:space="preserve">
<style type="text/css">
	.st0{fill:url(#SVGID_1_);}
	.st1{fill:#FFFFFF;}
</style>
<g>
	<g>
		<linearGradient id="SVGID_1_" gradientUnits="userSpaceOnUse" x1="17.5929" y1="-0.7456" x2="18.3745" y2="35.2461">
			<stop  offset="0" style="stop-color:#7AD9F2"/>
			<stop  offset="1" style="stop-color:#1450C2"/>
		</linearGradient>
		<circle class="st0" cx="18" cy="18" r="18"/>
	</g>
</g>
<g>
	<path class="st1" d="M8.199,20.94c-0.44,0.233-0.759,0.5-1.238,0.393c1.13-1.596,2.294-3.152,2.343-5.261
		c-0.171,0.024-0.296,0.049-0.423,0.058c-0.963,0.069-1.86-0.108-2.602-0.767c-0.399-0.355-0.653-0.824-0.793-1.332
		c-0.183-0.659-0.332-1.329-0.459-2.002c-0.052-0.275-0.009-0.568-0.009-0.772c0.339,0.291,0.681,0.575,1.012,0.871
		c0.683,0.61,1.428,0.896,2.359,0.609c0.777-0.239,1.589-0.389,2.248-0.9c0.285-0.221,0.526-0.504,0.769-0.774
		c0.758-0.843,1.681-1.465,2.669-1.999c0.716-0.387,1.449-0.734,2.267-0.844c0.32-0.043,0.645-0.096,0.965-0.082
		c1.64,0.071,3.023-0.581,4.318-1.495c0.349-0.246,0.692-0.502,1.082-0.785c0.06,0.771,0.069,1.507-0.287,2.31
		c0.9-0.124,1.725-0.238,2.63-0.363c-0.121,0.478-0.244,0.966-0.369,1.452c-0.018,0.07-0.038,0.143-0.075,0.205
		c-0.135,0.228-0.029,0.317,0.19,0.358c0.788,0.146,1.575,0.296,2.362,0.443c0.048,0.009,0.097,0.012,0.223,0.028
		c-0.326,0.375-0.612,0.705-0.927,1.067c0.799,0.2,1.532,0.104,2.236-0.165c0.718-0.274,1.242-0.788,1.582-1.521
		c0.413,0.515,0.631,1.067,0.702,1.669c0.15,1.276-0.348,2.256-1.396,2.985c-0.806,0.56-1.677,0.982-2.594,1.318
		c-0.097,0.036-0.193,0.073-0.362,0.137c0.759,1.665,1.51,3.311,2.276,4.992c-0.378,0-0.749,0-1.157,0
		c0.042,0.162,0.071,0.281,0.104,0.399c0.398,1.436,0.26,2.738-0.921,3.793c-0.421,0.376-0.83,0.766-1.239,1.156
		c-0.858,0.818-1.718,1.634-2.565,2.463c-0.229,0.224-0.415,0.493-0.682,0.816c-0.18-0.554-0.345-1.06-0.522-1.606
		c-0.054,0.022-0.176,0.061-0.289,0.119c-1.415,0.718-2.907,1.2-4.484,1.377c-1.372,0.154-2.718,0.007-4.01-0.511
		c-1.355-0.544-2.679-1.151-3.845-2.046c-0.654-0.502-1.241-1.071-1.528-1.875c-0.172-0.483-0.164-0.963-0.042-1.468
		C7.906,22.611,8.031,21.814,8.199,20.94z M14.113,18.576c0.116,0.95,0.591,1.69,1.099,2.413c0.046,0.065,0.155,0.103,0.242,0.119
		c1.828,0.343,3.632,0.294,5.451-0.152c0.828-0.203,1.305-0.598,1.504-1.401c0.08-0.323,0.217-0.633,0.328-0.948
		c0.035-0.006,0.069-0.013,0.104-0.019c0.225,0.456,0.45,0.913,0.696,1.412c0.022-0.094,0.041-0.141,0.043-0.19
		c0.056-1.152,0.147-2.303,0.155-3.455c0.007-1.057-0.347-2.018-1.018-2.849c-0.072-0.09-0.17-0.158-0.226-0.209
		c-0.25,0.345-0.476,0.657-0.73,1.008c-0.366-0.826-0.73-1.541-1.301-2.183c-0.241,0.64-0.708,1.004-1.176,1.418
		c-0.073-0.432-0.116-0.797-0.198-1.152c-0.098-0.421-0.258-0.532-0.68-0.531c-0.136,0-0.278-0.014-0.408,0.017
		c-0.942,0.226-1.891,0.433-2.82,0.705c-0.758,0.221-1.517,0.449-2.196,0.892c-0.518,0.338-0.914,0.751-1.035,1.359
		c-0.102,0.51-0.15,1.033-0.201,1.552c-0.146,1.479,0.254,2.819,1.06,4.052c0.038,0.059,0.059,0.129,0.088,0.194
		c0.03-0.022,0.059-0.044,0.089-0.066C13.056,19.74,13.339,19.04,14.113,18.576z"/>
	<path class="st1" d="M10.208,5.788c0.739-0.397,1.458-0.783,2.218-1.191c0.102,0.297,0.202,0.582,0.299,0.868
		c0.272,0.806,0.534,1.615,0.819,2.416c0.069,0.195,0.032,0.283-0.145,0.364c-0.824,0.378-0.53,0.442-1.124-0.174
		c-0.673-0.698-1.312-1.429-1.965-2.147C10.276,5.888,10.25,5.845,10.208,5.788z"/>
	<path class="st1" d="M13.421,5.114c0.557-0.13,1.092-0.254,1.665-0.387c0,0.886,0.004,1.741-0.008,2.596
		c-0.001,0.077-0.095,0.182-0.172,0.221c-0.147,0.074-0.313,0.109-0.493,0.167C14.084,6.849,13.759,5.997,13.421,5.114z"/>
	<path class="st1" d="M10.155,7.294c0.621,0.552,1.218,1.085,1.857,1.654c-0.225,0.177-0.409,0.34-0.614,0.47
		C11.332,9.459,11.2,9.433,11.113,9.4c-0.668-0.254-1.331-0.518-2.023-0.789C9.444,8.173,9.789,7.746,10.155,7.294z"/>
	<path class="st1" d="M13.924,15.013c0.17,0.066,0.305,0.114,0.437,0.17c1.093,0.455,2.183,0.918,3.28,1.363
		c0.224,0.091,0.252,0.188,0.162,0.399c-0.346,0.814-1.175,1.296-2.054,1.175c-0.176-0.024-0.354-0.043-0.527-0.082
		c-1.224-0.272-1.745-1.056-1.509-2.283C13.759,15.513,13.847,15.279,13.924,15.013z"/>
	<path class="st1" d="M18.861,16.619c1.202-0.383,2.384-0.761,3.563-1.137c0.412,0.929-0.197,2.13-1.267,2.549
		C20.232,18.393,19.26,17.807,18.861,16.619z"/>
</g>
</svg>
