<?xml version="1.0" encoding="utf-8"?>
<!-- Generator: Adobe Illustrator 25.2.0, SVG Export Plug-In . SVG Version: 6.00 Build 0)  -->
<svg version="1.1" id="Layer_1" xmlns="http://www.w3.org/2000/svg" xmlns:xlink="http://www.w3.org/1999/xlink" x="0px" y="0px"
	 viewBox="0 0 36 36" style="enable-background:new 0 0 36 36;" xml:space="preserve">
<style type="text/css">
	.st0{fill:#FFBD1D;}
</style>
<circle cx="18" cy="18" r="18"/>
<path class="st0" d="M12.504,18.379c-0.209-0.209-0.209-0.548,0-0.757l2.624-2.624c0.209-0.209,0.209-0.548,0-0.757l-1.033-1.033
	c-0.209-0.209-0.548-0.209-0.757,0l-2.624,2.624c-0.209,0.209-0.548,0.209-0.757,0l-2.624-2.624c-0.209-0.209-0.548-0.209-0.757,0
	l-1.033,1.033c-0.209,0.209-0.209,0.548,0,0.757l2.624,2.624c0.209,0.209,0.209,0.548,0,0.757l-2.624,2.624
	c-0.209,0.209-0.209,0.548,0,0.757l1.033,1.033c0.209,0.209,0.548,0.209,0.757,0l2.624-2.624c0.209-0.209,0.548-0.209,0.757,0
	l2.624,2.624c0.209,0.209,0.548,0.209,0.757,0l1.033-1.033c0.209-0.209,0.209-0.548,0-0.757L12.504,18.379z"/>
<path class="st0" d="M27.833,18.379c-0.209-0.209-0.209-0.548,0-0.757l2.624-2.624c0.209-0.209,0.209-0.548,0-0.757l-1.033-1.033
	c-0.209-0.209-0.548-0.209-0.757,0l-2.624,2.624c-0.209,0.209-0.548,0.209-0.757,0l-2.624-2.624c-0.209-0.209-0.548-0.209-0.757,0
	l-1.033,1.033c-0.209,0.209-0.209,0.548,0,0.757l2.624,2.624c0.209,0.209,0.209,0.548,0,0.757l-2.624,2.624
	c-0.209,0.209-0.209,0.548,0,0.757l1.033,1.033c0.209,0.209,0.548,0.209,0.757,0l2.624-2.624c0.209-0.209,0.548-0.209,0.757,0
	l2.624,2.624c0.209,0.209,0.548,0.209,0.757,0l1.033-1.033c0.209-0.209,0.209-0.548,0-0.757L27.833,18.379z"/>
</svg>
