<?xml version="1.0" encoding="utf-8"?>
<!-- Generator: Adobe Illustrator 25.2.0, SVG Export Plug-In . SVG Version: 6.00 Build 0)  -->
<svg version="1.1" id="Layer_1" xmlns="http://www.w3.org/2000/svg" xmlns:xlink="http://www.w3.org/1999/xlink" x="0px" y="0px"
	 viewBox="0 0 36 36" style="enable-background:new 0 0 36 36;" xml:space="preserve">
<style type="text/css">
	.st0{fill:#F3BA2F;}
	.st1{fill:#000000;}
</style>
<circle class="st0" cx="18" cy="18" r="18"/>
<g>
	<path class="st1" d="M13.145,16.005L18,11.15l4.857,4.857l2.825-2.825L18,5.5l-7.68,7.68L13.145,16.005 M5.5,18l2.825-2.825
		l2.825,2.825l-2.825,2.825L5.5,18z M13.145,19.995L18,24.85l4.857-4.857l2.826,2.823l-0.001,0.001L18,30.5l-7.68-7.68l-0.004-0.004
		L13.145,19.995 M24.85,18.001l2.825-2.825l2.825,2.825l-2.825,2.825L24.85,18.001z"/>
	<path class="st1" d="M20.865,17.999h0.001L18,15.132l-2.118,2.118h0l-0.243,0.243l-0.502,0.502L15.132,18l0.004,0.004L18,20.868
		l2.867-2.867L20.868,18L20.865,17.999"/>
</g>
</svg>
