<?xml version="1.0" encoding="utf-8"?>
<!-- Generator: Adobe Illustrator 25.2.0, SVG Export Plug-In . SVG Version: 6.00 Build 0)  -->
<svg version="1.1" id="Layer_1" xmlns="http://www.w3.org/2000/svg" xmlns:xlink="http://www.w3.org/1999/xlink" x="0px" y="0px"
	 viewBox="0 0 36 36" style="enable-background:new 0 0 36 36;" xml:space="preserve">
<style type="text/css">
	.st0{fill:#F7931A;}
	.st1{fill:#FFFFFF;}
</style>
<g>
	<circle class="st0" cx="18" cy="18" r="18"/>
</g>
<path class="st1" d="M25.565,15.766c0.358-2.395-1.465-3.683-3.959-4.542l0.809-3.245L20.44,7.487l-0.788,3.159
	c-0.519-0.13-1.053-0.252-1.583-0.373l0.793-3.18l-1.974-0.492L16.08,9.845c-0.43-0.098-0.852-0.195-1.261-0.296l0.002-0.01
	l-2.724-0.68l-0.525,2.11c0,0,1.465,0.336,1.435,0.357c0.8,0.2,0.944,0.729,0.92,1.149l-0.922,3.697
	c0.055,0.014,0.127,0.034,0.205,0.066c-0.066-0.016-0.136-0.034-0.209-0.052l-1.292,5.178c-0.098,0.243-0.346,0.608-0.905,0.469
	c0.02,0.029-1.436-0.358-1.436-0.358l-0.981,2.261l2.57,0.641c0.478,0.12,0.947,0.245,1.408,0.363l-0.817,3.282l1.973,0.492
	l0.809-3.247c0.539,0.146,1.062,0.281,1.574,0.409L15.1,28.906l1.975,0.492l0.817-3.276c3.368,0.637,5.901,0.38,6.967-2.666
	c0.859-2.453-0.043-3.868-1.815-4.79C24.335,18.369,25.307,17.52,25.565,15.766L25.565,15.766L25.565,15.766z M21.052,22.094
	c-0.61,2.453-4.74,1.127-6.079,0.794l1.085-4.348C17.397,18.875,21.69,19.536,21.052,22.094L21.052,22.094z M21.663,15.731
	c-0.557,2.231-3.994,1.098-5.109,0.82l0.983-3.943C18.653,12.885,22.243,13.403,21.663,15.731L21.663,15.731z"/>
</svg>
