<?xml version="1.0" encoding="utf-8"?>
<!-- Generator: Adobe Illustrator 25.2.0, SVG Export Plug-In . SVG Version: 6.00 Build 0)  -->
<svg version="1.1" id="Layer_1" xmlns="http://www.w3.org/2000/svg" xmlns:xlink="http://www.w3.org/1999/xlink" x="0px" y="0px"
	 viewBox="0 0 36 36" style="enable-background:new 0 0 36 36;" xml:space="preserve">
<style type="text/css">
	.st0{fill:#18BE40;}
	.st1{fill:#FFFFFF;}
</style>
<g>
	<circle class="st0" cx="18" cy="18" r="18"/>
	<g>
		<path class="st1" d="M25.928,21.342h-3.735c-0.441,0-0.799,0.358-0.799,0.799v1.435h-2.618V29h3.362c2.535,0,4.59-2.055,4.59-4.59
			v-2.269C26.727,21.7,26.369,21.342,25.928,21.342z"/>
		<path class="st1" d="M17.224,23.576h-2.618V12.424h2.618V7h-3.362c-2.535,0-4.59,2.055-4.59,4.59v12.82
			c0,2.535,2.055,4.59,4.59,4.59h3.362V23.576z"/>
		<path class="st1" d="M22.137,7h-3.362v5.424h2.618v1.435c0,0.441,0.358,0.799,0.799,0.799h3.735c0.441,0,0.799-0.358,0.799-0.799
			V11.59C26.727,9.055,24.672,7,22.137,7z"/>
	</g>
</g>
</svg>
