<?xml version="1.0" encoding="utf-8"?>
<!-- Generator: Adobe Illustrator 25.2.0, SVG Export Plug-In . SVG Version: 6.00 Build 0)  -->
<svg version="1.1" id="Layer_1" xmlns="http://www.w3.org/2000/svg" xmlns:xlink="http://www.w3.org/1999/xlink" x="0px" y="0px"
	 viewBox="0 0 36 36" style="enable-background:new 0 0 36 36;" xml:space="preserve">
<style type="text/css">
	.st0{fill:#4DD7DD;}
	.st1{fill-rule:evenodd;clip-rule:evenodd;fill:#633001;}
	.st2{fill:#FEDC90;}
	.st3{fill-rule:evenodd;clip-rule:evenodd;fill:#D1884F;}
	.st4{fill:#633001;}
</style>
<g>
	<circle class="st0" cx="18" cy="18" r="18"/>
</g>
<g>
	<path class="st1" d="M10.07,8.406c-0.391-2.031,1.172-3.906,3.203-3.906c1.797,0,3.281,1.484,3.281,3.281v4.063
		c0.469,0,0.938-0.078,1.406-0.078s0.859,0,1.328,0.078V7.781c0-1.797,1.484-3.281,3.281-3.281c2.031,0,3.594,1.875,3.281,3.906
		l-0.859,4.766c3.047,1.328,5.391,3.672,5.391,6.562v1.797c0,2.422-1.563,4.453-3.828,5.781c-2.266,1.406-5.234,2.188-8.594,2.188
		s-6.328-0.781-8.594-2.188c-2.188-1.328-3.75-3.359-3.75-5.781v-1.797c0-2.891,2.266-5.234,5.312-6.562L10.07,8.406z M23.82,13.796
		l1.016-5.625c0.234-1.406-0.781-2.734-2.266-2.734c-1.25,0-2.266,1.016-2.266,2.266v5.156c-0.312-0.078-0.703-0.078-1.016-0.078
		c-0.469,0-0.859-0.078-1.328-0.078s-0.938,0-1.406,0.078c-0.312,0-0.703,0.078-1.016,0.078V7.781c0-1.25-1.016-2.266-2.266-2.266
		c-1.406,0-2.5,1.328-2.188,2.734l1.016,5.625c-3.281,1.25-5.469,3.438-5.469,5.938v1.797c0,3.828,5.078,6.953,11.328,6.953
		s11.328-3.125,11.328-6.953v-1.797C29.367,17.234,27.18,15.046,23.82,13.796z"/>
	<path class="st2" d="M29.367,21.531c0,3.828-5.078,6.953-11.328,6.953S6.711,25.359,6.711,21.531v-1.797h22.734v1.797H29.367z"/>
	<path class="st3" d="M11.086,8.249c-0.312-1.406,0.781-2.734,2.188-2.734c1.25,0,2.266,1.016,2.266,2.266v5.156
		c0.781-0.078,1.562-0.156,2.422-0.156c0.781,0,1.562,0.078,2.344,0.156V7.781c0-1.25,1.016-2.266,2.266-2.266
		c1.406,0,2.5,1.328,2.266,2.734l-1.016,5.625c3.281,1.25,5.547,3.438,5.547,5.938c0,3.828-5.078,6.953-11.328,6.953
		S6.711,23.64,6.711,19.812c0-2.5,2.188-4.688,5.469-5.938L11.086,8.249z"/>
	<path class="st4" d="M14.836,19.265c0,1.016-0.547,1.875-1.25,1.875c-0.703,0-1.25-0.859-1.25-1.875s0.547-1.875,1.25-1.875
		C14.289,17.39,14.836,18.249,14.836,19.265z"/>
	<path class="st4" d="M23.508,19.265c0,1.016-0.547,1.875-1.25,1.875s-1.25-0.859-1.25-1.875s0.547-1.875,1.25-1.875
		S23.508,18.249,23.508,19.265z"/>
</g>
</svg>
