<?xml version="1.0" encoding="utf-8"?>
<!-- Generator: Adobe Illustrator 25.2.0, SVG Export Plug-In . SVG Version: 6.00 Build 0)  -->
<svg version="1.1" id="Layer_1" xmlns="http://www.w3.org/2000/svg" xmlns:xlink="http://www.w3.org/1999/xlink" x="0px" y="0px"
	 viewBox="0 0 36 36" style="enable-background:new 0 0 36 36;" xml:space="preserve">
<style type="text/css">
	.st0{fill:#FFFFFF;}
	.st1{fill:url(#Path_6310-2_1_);}
	.st2{fill:#7FFFD4;}
</style>
<circle class="st0" cx="18" cy="18" r="18"/>
<g id="icon" transform="translate(-63 -46)">
	<g id="Group_6837" transform="translate(136.911 77)">
		<g transform="matrix(1, 0, 0, 1, -9.68, -6.68)">
			
				<radialGradient id="Path_6310-2_1_" cx="-338.303" cy="391.6016" r="0.3161" gradientTransform="matrix(18.0841 31.3226 31.9848 -18.4665 -6453.7002 17821.2871)" gradientUnits="userSpaceOnUse">
				<stop  offset="0" style="stop-color:#979797"/>
				<stop  offset="1" style="stop-color:#CCDAFF"/>
			</radialGradient>
			<path id="Path_6310-2" class="st1" d="M-51.055-10.284c-2.016,2.048-2.176,4.54-0.482,7.475c1.09,1.889,2.554,2.949,4.391,3.181
				l-0.001,5.308c-3.821-0.312-6.792-2.305-8.914-5.98c-1.827-3.164-2.336-6.256-1.527-9.276c0.808-3.018,2.826-5.568,5.577-7.048
				c2.646-1.629,5.842-2.111,8.851-1.333c3.042,0.795,5.613,2.828,7.089,5.604c1.592,2.583,1.994,5.727,1.102,8.628
				c-0.889,2.949-2.908,5.426-5.616,6.892c-0.683,0.389-1.399,0.717-2.139,0.98L-51.055-10.284z M-47.271-12.571l5.636,9.762
				c1.045-0.859,1.725-2.081,1.903-3.421c0.132-1.239-0.141-2.487-0.778-3.557c-0.636-1.208-1.664-2.162-2.915-2.707
				C-44.658-12.974-46.021-13.001-47.271-12.571z"/>
		</g>
		<g transform="matrix(1, 0, 0, 1, -9.68, -6.68)">
			<path id="Path_6313-2" class="st2" d="M-51.055-10.284l-2.915-4.975c0.611-0.512,1.267-0.969,1.96-1.364
				c2.646-1.629,5.842-2.111,8.851-1.333c3.042,0.795,5.613,2.828,7.089,5.604c1.592,2.583,1.994,5.727,1.102,8.628
				c-0.889,2.949-2.908,5.426-5.616,6.892c-0.683,0.389-1.399,0.717-2.139,0.98L-51.055-10.284z M-47.271-12.571l5.636,9.762
				c1.045-0.859,1.725-2.081,1.903-3.421c0.132-1.239-0.141-2.487-0.778-3.557c-0.636-1.208-1.664-2.162-2.915-2.707
				C-44.658-12.974-46.021-13.001-47.271-12.571z"/>
		</g>
	</g>
</g>
</svg>
