<?xml version="1.0" encoding="utf-8"?>
<!-- Generator: Adobe Illustrator 25.2.0, SVG Export Plug-In . SVG Version: 6.00 Build 0)  -->
<svg version="1.1" id="Layer_1" xmlns="http://www.w3.org/2000/svg" xmlns:xlink="http://www.w3.org/1999/xlink" x="0px" y="0px"
	 viewBox="0 0 36 36" style="enable-background:new 0 0 36 36;" xml:space="preserve">
<style type="text/css">
	.st0{fill:#7356B0;}
	.st1{fill:url(#SVGID_1_);}
	.st2{fill:#FFFFFF;}
	.st3{fill:#E55C17;}
	.st4{fill:#FA8516;}
	.st5{fill:#FC7315;}
	.st6{fill:#FFA54D;}
</style>
<g>
	<g>
		<circle class="st0" cx="18" cy="18" r="18"/>
	</g>
</g>
<g>
	
		<radialGradient id="SVGID_1_" cx="139.1302" cy="-90.9561" r="15.5489" gradientTransform="matrix(1 -2.564521e-05 2.849487e-05 0.9 -118.6689 97.3021)" gradientUnits="userSpaceOnUse">
		<stop  offset="0.4677" style="stop-color:#FFDA65"/>
		<stop  offset="0.8366" style="stop-color:#E69500"/>
		<stop  offset="1" style="stop-color:#FFDA65"/>
	</radialGradient>
	<path class="st1" d="M27.17,21.036c0,3.792-2.405,7.32-6.308,8.531c0,0.001-0.001,0.001-0.003,0.001
		c-2.418,0.754-5.099,0.505-7.258-0.641c0,0,0,0-0.001,0c-1.35-0.709-2.467-1.733-3.26-2.921c0-0.001,0-0.001,0-0.001
		c-1.018-1.506-1.463-3.412-1.463-4.144C8.229,15.9,12.725,3.684,19.936,6.384c0.001,0,0.003,0.001,0.004,0.003
		c1.369,0.486,3.262,1.894,4.841,4.861c0,0.001,0,0.003,0.001,0.004c0.111,0.207,0.217,0.416,0.32,0.631
		c0.001,0.001,0.001,0.003,0.001,0.004C26.576,14.941,27.304,18.901,27.17,21.036z"/>
	<path class="st2" d="M15.948,29.798c1.413,0.289,2.905,0.256,4.329-0.108c-1.022-2.445-1.859-5.031-1.955-7.674
		c1.127-0.294,2.672-1.147,2.938-3.011c0.267-3.994-6.401-5.063-7.721-1.331C12.184,21.505,14.563,26.497,15.948,29.798z"/>
	<g>
		<path class="st3" d="M22.532,20.978c0.774-0.145,2.95-0.999,2.338-1.926c-2.044,0.212-4.228,0.212-6.272,0.423
			c0,0.071,0,0.071,0,0.071l-0.536-0.253c0.478,0.837,0.874,1.537,1.731,1.79C19.953,21.13,21.669,21.139,22.532,20.978z"/>
	</g>
	<g>
		<path class="st4" d="M19.445,19.994c1.158,0.384,2.588,0.509,3.792,0.239c0.845-0.168,3.434-1.853,1.606-2.221
			c-0.574-0.09-1.132,0.121-1.879-0.055c-2.053,0-1.957-1.636-2.619-1.377c-1.145,0.034-0.395,2.29-2.083,2.159
			c-0.447-0.08-0.427,0.465-0.004,0.731C18.606,19.687,19.074,19.892,19.445,19.994z"/>
	</g>
	<g>
		<path class="st5" d="M20.838,16.792c-0.05-0.093-0.125-0.179-0.287-0.23c-1.373-0.26-0.602,2.307-2.29,2.177
			c-0.447-0.08-0.427,0.465-0.004,0.731c0.348,0.218,0.816,0.422,1.187,0.525c1.158,0.384,2.588,0.509,3.792,0.239
			c0.663-0.132,2.401-1.199,2.233-1.829c-1.31,1.324-3.348,1.358-5.104,1.268c-0.824-0.042-0.819-0.676-0.43-1.412
			C20.239,17.686,19.886,16.955,20.838,16.792z"/>
	</g>
	<g>
		<path class="st6" d="M20.344,19.493c0.019,0.006,0.038,0.013,0.056,0.023L20.344,19.493z"/>
	</g>
	<g>
		<g>
			<path d="M17.445,18.26c0-0.381-0.309-0.69-0.691-0.69s-0.691,0.309-0.691,0.69c0,0.381,0.309,0.691,0.691,0.691
				S17.445,18.641,17.445,18.26z"/>
		</g>
		<g>
			<path class="st2" d="M17.106,18.133c0-0.097-0.079-0.176-0.175-0.176c-0.098,0-0.176,0.079-0.176,0.176
				c0,0.097,0.079,0.176,0.176,0.176C17.027,18.309,17.106,18.23,17.106,18.133z"/>
		</g>
	</g>
</g>
</svg>
