<?xml version="1.0" encoding="utf-8"?>
<!-- Generator: Adobe Illustrator 25.2.1, SVG Export Plug-In . SVG Version: 6.00 Build 0)  -->
<svg version="1.1" id="Layer_1" xmlns="http://www.w3.org/2000/svg" xmlns:xlink="http://www.w3.org/1999/xlink" x="0px" y="0px"
	 viewBox="0 0 36 36" style="enable-background:new 0 0 36 36;" xml:space="preserve">
<style type="text/css">
	.st0{fill:#FFCB23;}
</style>
<g>
	<g>
		<circle cx="18" cy="18" r="18"/>
	</g>
</g>
<g>
	<path class="st0" d="M7,19.035c0-3.408,0-6.816,0.003-10.223c0-0.083,0.039-0.167,0.06-0.25c0.37,0.301,0.734,0.61,1.111,0.901
		c3.174,2.451,6.354,4.896,9.522,7.355c0.237,0.184,0.37,0.177,0.601-0.002c3.492-2.706,6.992-5.402,10.492-8.099
		c0.051-0.039,0.114-0.061,0.206-0.108c0,0.156,0,0.269,0,0.382c0,3.218-0.003,6.436,0.005,9.654
		c0.001,0.243-0.069,0.395-0.265,0.546c-3.413,2.621-6.82,5.25-10.226,7.879c-0.145,0.112-0.272,0.246-0.408,0.369
		c-0.063,0-0.125,0-0.188,0c-0.075-0.07-0.146-0.145-0.227-0.208c-3.408-2.63-6.816-5.26-10.226-7.887
		C7.314,19.231,7.154,19.137,7,19.035z M10.307,15.667c0,0.496,0.014,0.93-0.005,1.362c-0.011,0.246,0.074,0.398,0.268,0.548
		c1.677,1.297,3.346,2.606,5.018,3.911c0.798,0.623,1.597,1.244,2.408,1.876c0.423-0.331,0.834-0.651,1.244-0.972
		c2.076-1.619,4.152-3.238,6.225-4.86c0.086-0.067,0.204-0.165,0.208-0.252c0.02-0.516,0.01-1.033,0.01-1.61
		c-0.129,0.087-0.206,0.132-0.276,0.187c-2.38,1.858-4.762,3.713-7.135,5.58c-0.21,0.165-0.336,0.172-0.551,0.004
		c-2.364-1.861-4.737-3.71-7.109-5.562C10.534,15.816,10.449,15.764,10.307,15.667z"/>
	<path class="st0" d="M25.507,25.459c0-0.784-0.003-1.534,0.005-2.284c0.001-0.081,0.046-0.188,0.108-0.237
		c1.083-0.85,2.172-1.692,3.26-2.534c0.021-0.016,0.055-0.015,0.1-0.025c0,1.695,0,3.378,0,5.08
		C27.824,25.459,26.682,25.459,25.507,25.459z"/>
	<path class="st0" d="M10.474,25.459c0-0.784,0.003-1.534-0.005-2.284c-0.001-0.081-0.046-0.188-0.108-0.237
		c-1.083-0.85-2.172-1.692-3.26-2.534c-0.021-0.016-0.055-0.015-0.1-0.025c0,1.695,0,3.378,0,5.08
		C8.156,25.459,9.298,25.459,10.474,25.459z"/>
</g>
</svg>
