<?xml version="1.0" encoding="utf-8"?>
<!-- Generator: Adobe Illustrator 25.2.0, SVG Export Plug-In . SVG Version: 6.00 Build 0)  -->
<svg version="1.1" id="Layer_1" xmlns="http://www.w3.org/2000/svg" xmlns:xlink="http://www.w3.org/1999/xlink" x="0px" y="0px"
	 viewBox="0 0 36 36" style="enable-background:new 0 0 36 36;" xml:space="preserve">
<style type="text/css">
	.st0{fill:#FFFFFF;}
	.st1{fill:#82BD39;}
</style>
<circle class="st0" cx="18" cy="18" r="18"/>
<path class="st1" d="M16.084,22.032L18,24.557V30l-7.2-3.196V12.743c0-0.208,0.092-0.406,0.254-0.544l0.82-0.702
	c0.319-0.276,0.801-0.241,1.077,0.078c0.011,0.012,0.021,0.025,0.031,0.038l6.558,8.597l3.623,2.215V10.57l-3.202-1.597
	l-0.156,7.435L18.11,14.16L18.034,6L25.2,9.335v13.997l-1.628,1.342l-5.129-2.864l-5.693-7.468l-0.078,11.345l3.39,1.736
	L16.084,22.032z"/>
</svg>
