<?xml version="1.0" encoding="utf-8"?>
<!-- Generator: Adobe Illustrator 25.2.0, SVG Export Plug-In . SVG Version: 6.00 Build 0)  -->
<svg version="1.1" id="Layer_1" xmlns="http://www.w3.org/2000/svg" xmlns:xlink="http://www.w3.org/1999/xlink" x="0px" y="0px"
	 viewBox="0 0 36 36" style="enable-background:new 0 0 36 36;" xml:space="preserve">
<style type="text/css">
	.st0{fill:#53AE94;}
	.st1{fill:#FFFFFF;}
</style>
<g>
	<path class="st0" d="M18,0c9.941,0,18,8.059,18,18s-8.06,18-18,18S0,27.943,0,18S8.058,0,18,0"/>
	<path class="st1" d="M20.222,15.602v-2.678h6.123v-4.08H9.671v4.08h6.124V15.6c-4.977,0.229-8.719,1.214-8.719,2.395
		s3.744,2.166,8.719,2.397v8.577h4.428V20.39c4.968-0.229,8.703-1.214,8.703-2.394S25.191,15.831,20.222,15.602 M20.223,19.664
		v-0.002c-0.125,0.008-0.767,0.046-2.196,0.046c-1.143,0-1.947-0.032-2.23-0.047v0.004c-4.397-0.195-7.679-0.96-7.679-1.877
		s3.282-1.681,7.679-1.876v2.99c0.288,0.02,1.112,0.068,2.249,0.068c1.365,0,2.052-0.057,2.178-0.068v-2.99
		c4.388,0.195,7.663,0.962,7.663,1.875s-3.276,1.68-7.663,1.875"/>
</g>
</svg>
