<svg xmlns="http://www.w3.org/2000/svg" width="60" height="60" viewBox="0 0 60 60"><defs><style>.a{fill:#05090b;}.b{fill:#f0b90b;}</style></defs><g transform="translate(-1640 -516)"><rect class="a" width="60" height="60" rx="20" transform="translate(1640 516)"/><g transform="translate(1653.487 527.239)"><path class="b" d="M12.647-5,2.7.739l3.659,2.12L12.647-.76l6.291,3.618L22.6.739Z" transform="translate(3.558 5)"/><path class="b" d="M18.939,9.488l3.658,2.12v4.24L16.3,19.466V26.7l-3.658,2.12L8.989,26.7V19.466L2.7,15.848v-4.24l3.659-2.12,6.291,3.618Z" transform="translate(3.558 1.367)"/><path class="b" d="M28.032,21.976v4.239l-3.658,2.12V24.1Z" transform="translate(-1.878 -1.764)"/><path class="b" d="M24.325,30.121,30.617,26.5V19.266l3.658-2.12V28.622l-9.95,5.739Z" transform="translate(-1.865 -0.553)"/><path class="b" d="M31.5,8.9l-3.658-2.12L31.5,4.659l3.658,2.12v4.239L31.5,13.138Z" transform="translate(-2.747 2.578)"/><path class="b" d="M11.1,40.752v-4.24l3.658,2.12,3.658-2.12v4.24l-3.658,2.12Z" transform="translate(1.452 -5.409)"/><path class="b" d="M6.356,28.335,2.7,26.215V21.976L6.356,24.1Z" transform="translate(3.558 -1.764)"/><path class="b" d="M14.753,8.9,11.1,6.779l3.658-2.12,3.658,2.12Z" transform="translate(1.452 2.578)"/><path class="b" d="M1.665,6.779-1.993,8.9v4.24l-3.658-2.12V6.779l3.658-2.12Z" transform="translate(5.651 2.578)"/><path class="b" d="M-5.651,17.146l3.658,2.12V26.5L4.3,30.121v4.24l-9.949-5.739Z" transform="translate(5.651 -0.553)"/></g></g></svg>