<svg xmlns="http://www.w3.org/2000/svg" width="16" height="16" viewBox="0 0 16 16"><defs><style>.a{fill:none;stroke:#5c6d78;stroke-linecap:round;stroke-linejoin:round;stroke-width:2px;}</style></defs><g transform="translate(-2 -2)"><path class="a" d="M14.9,13.5h6.3a1.4,1.4,0,0,1,1.4,1.4v6.3a1.4,1.4,0,0,1-1.4,1.4H14.9a1.4,1.4,0,0,1-1.4-1.4V14.9A1.4,1.4,0,0,1,14.9,13.5Z" transform="translate(-5.6 -5.6)"/><path class="a" d="M5.1,12.1H4.4A1.4,1.4,0,0,1,3,10.7V4.4A1.4,1.4,0,0,1,4.4,3h6.3a1.4,1.4,0,0,1,1.4,1.4v.7"/></g></svg>