<svg xmlns="http://www.w3.org/2000/svg" width="18" height="15.425" viewBox="0 0 18 15.425"><defs><style>.a{fill:#90a2ab;}</style></defs><path class="a" d="M11.252,7.746a4.08,4.08,0,0,1,4.093,4.061,3.907,3.907,0,0,1-.293,1.486l2.39,2.37a9.6,9.6,0,0,0,2.808-3.856A9.694,9.694,0,0,0,7.986,6.284L9.754,8.039A4.047,4.047,0,0,1,11.252,7.746ZM3.069,5.532,4.937,7.384l.378.374A9.557,9.557,0,0,0,2.25,11.807a9.708,9.708,0,0,0,12.585,5.407l.345.341,2.4,2.37,1.04-1.032L4.106,4.5Zm4.523,4.487,1.269,1.257A2.3,2.3,0,0,0,8.8,11.8a2.442,2.442,0,0,0,2.454,2.434,2.308,2.308,0,0,0,.53-.064l1.269,1.257A4.072,4.072,0,0,1,7.159,11.8,4.012,4.012,0,0,1,7.593,10.019Zm3.527-.631L13.7,11.947l.016-.129A2.442,2.442,0,0,0,11.26,9.385Z" transform="translate(-2.25 -4.5)"/></svg>