<svg xmlns="http://www.w3.org/2000/svg" xmlns:xlink="http://www.w3.org/1999/xlink" width="2560" height="1400" viewBox="0 0 2560 1400"><defs><style>.a{fill:#fff;}.b{clip-path:url(#a);}.c{fill:#0c1317;}.d{fill:#091014;}.e{fill:#080e12;}.f{fill:#030609;}.g,.h{fill:#05090b;}.h{fill-rule:evenodd;}</style><clipPath id="a"><rect class="a" width="2560" height="1400"/></clipPath></defs><g class="b"><rect class="c" width="2560" height="1400"/><path class="d" d="M2840.379,1169.636c.132-48.293-.555-97.959-.307-147.018.086-17.4,2.843-66.215-2.547-81.649-5.782-16.553-1.293-14.778-22.159-16.253a165.229,165.229,0,0,0-17.579-.231l-3.826-45.98-9.5-40.4-4.033-25.113-2.177-21.706-8.211-103.817-17.982-107.479-20.471-97.745,15.377-62.419,6.857-122.723-1.6-126.9-4.188-86.154,1.644-88.111-17.076-3.188-.216-.243L2730.124,72.4l-.6,78.157-6.158,130.967-3.738,114.163-2.79,35.917-14.617-43.658L2650.456,189,2622.7,75.642,2606.9,29.18l-6.566-61.293-41.957,16.962,2.506,46.7,12.857,51.428,25.072,86.171.5,2.281-12.949-18.542L2516.13,55.33l-13.794-82.9-17.813-5.582L2451.572-13.9l15.772,110.076,26.174,99.264,18.358,91.3-8.264-7.738-45.835-36.051-5.834,20.66,43.117,49.727,30.218,24.813,19.885,56.055,43.147,83.039,19.295,35.362,9.321,44.4,18.507,99.827,23.6,105.822,28.273,125.8,8.167,40.349c-21.574.458-43.05,3.723-64.118,12.056l.166-1.175,25.19-122.168-4.762-4.063-39.777,111.615-5.525,27.247c-1.138.531-2.276,1.061-3.417,1.58l-2.426-14.09-25.052-94.341-19.242-89.6-.5-3.735-19.115-103.473-.964-2.273-7.343-28.244h-8.5l-4.26,32.109-1.122,12.173-.232.1,17.913,175.1,9.659,99.916,1.475,45.453-.108,1.794q-8.765,5.463-17.5,10.59l2.128-4.776-4.3-18.4-20.792-124.413L2467.09,650.972,2427.9,407.478l-33.2-213.237,2.55-9.877,19.107-89.65,13.548-91.8,5.208-87.929-11.36-2.175L2409.833-5.2l-14.415,91.453-11.521,58.98L2357.76,46.908l-6.236-19.834-1.235-9.083-1.105-11.837-1.354-8.487-4.23-21.013-16.012-19.4-1.174-1.13h-31.282l-12.639,63.27,1.868,9.326-1.834,44.27,9.188,101.042,31.649,210.729,34.984,210.433,16.289,109.545L2360.351,618.6l-47.99-220.577-41.139-216.283L2242.237,48.557,2228.807,4.5l-9.379-16.31-5.227-7.458L2197.116-22.5l-10.344,60.56,10.391,116.019,20.435,137.8-37.069-35.309-77.424-88.358-12.236-14.13-12.711-54.8L2048.222-14.049,2031.514-28.1l-13.189,2.722-11.4,41.1,6.6,22.7-.285,16.613-40.661-72.1-11.835,7.316,3.246,19.818-2.52,73.037-.05-.113-21.541-36.419-5.064,4.266,27.53,91.579,2.926,96.124-2.71,148.468-16.449-92.162L1926.922,174.9l-19.7-100.823-9.653,3.832,20.273,200.245L1958.2,499.413l7.263,35.325-6.76-17.286-49.17-150.258-33.815-116.205.055-3.6,1.47-118.664L1858.126,27.252l-5.627,2.179-.287,95.934.138,27.77L1827.38,59.361l-15.151,9.366,31.635,163.579,6.039,21.5.685,207.436-3.313,181.731L1823.5,473.219l-17.314-254.631-21.963-231.24L1753.753-.332l23.16,199.127,13.976,250.827,30.425,249.607,19.513,236.105,7.1,114.532.251,44.582,1.412,35.212c-1-.02-2-.045-3.006-.061l-17.49-73.782L1804.05,946.644l-44.308-226.779-.409-2.654-13.3-210.9-13.672-132.4L1712.7,248.579l-13.043-137.785L1682.929-12.355,1644.019.154l-3.583-3.488L1608.1,33.122l.044,1.394L1604.2,62.853l1.047,49.678,3.765,57.906-47.6-29.844-31.464-23.367-2.1-17.57L1517.939,40.2l-35.39,7.077-.406-.081.691,26.919-39.747-43.347-9.354,10.585,39.523,65.591-32.03,40.863-36.5,41.714-45.413,45.919,14.347-46.952,17.8-53.851L1407.5,90.878l3.929-7.385.7-8.07-6.791-8.321-31.9,56.245-30.884,99.045-62.411,184.575-19.819,53.255L1263.1,220.5,1243.242,76.59l-4.672-49.176-17.054,3.33-2.174,30.189-.274-.089-34.262,71.886,4.9,63.3-4.337,100.795-2.2,44.546-28-99.985-33.16-137.072-29.624-71.919-3.456,5.769,5.9,46.2,7.567,58.307,31.646,135.792,45.032,160.876-.251,99.689,2.627,112.272-2.975,115.525L1177.2,920.7l-20.178-22.289-4.948,5.574,21.215,65.4,3.434,8.819-.293,23.33,1.141,127.455-19.563-69.362-4.826,1.916,14.565,115.893,14.54,52.421c-23.795-5.74-47.6-10.837-71.481-13.709a118.633,118.633,0,0,1-22.684-5.052l6.749-54.284-8.542-1.616-8.724,51.927a138.371,138.371,0,0,1-16.877-8.775l1.334-3.128,12.065-82.82-5.194-4.432-20.14,64-1.426,6.234-.638-6.226-.5-5-3.848-53.085-5.036-65.02.249-.733-2.122-16.67-4.793-39.17h-20.607l-6.034,16.342-8.023-17.334-9.65-69.938-1.812-2.844-6.047-10.189-4.144.77-9.341,34.025-6.727,53.47-15.377,89.772-14.783,59.757a434.256,434.256,0,0,0-46.719.3l8.539-4.286,12.866-36.711-3.3-34.932-6.379-2.451-14.855,27.466-3.2,26.377-8.277-6.846.713-9.265,3.006-38.631,7.6-60.065,20.032-247.33,9.556-172.807,14.943-17.529,14.9-29.03,12.973-54.823-6.719-4.209-26.729,40.2-6.553,13.223,7.548-126.426,11.136-25.87L948.2,340.214l35.564-106.746,24.9-92.486,7.581-91.911-4.26-.814-25.356,93.8-28.42,88.921L923.579,331.812l5.511-65.137,13.49-133.09L936.989,7.341h-5.365L907.29,114.075,891.7,235.052l-1.182,11.205-16.1-59.757,7.752-40.227,10.816-62.767,3.138-53.251-4.76-1.843L866.787,128.873l-1.862,8.649L835.989,9.468l-4.147,4.286L846.929,176.4l4.649,20.268-11.915,47.62L806.3,355.122l-1.5,4.318,4.724-47.033,11.227-139.313,1.6-58.036-2.9-56.679h-4.495l-18.764,97.939L779.02,271.564,752.951,500.426,715.7,728.8,692.156,838.181l-7.045-1.385-24.447,25.931,9.609-102.2,27.806-286.059L719.4,453.259l11.714-17.61,5.064-23.4-5.744-11.059-15.65,3.427-11.12,11.064,8.97-93.252,10.341-119.243-1.9-128.618H679.8l-28.82,105.474L635.226,290.6,612.594,505.684l-22.339,221.6,10.158-317.111,1.2-16.306,5.677-121.423L607.9,168.72l29.273-70.46,17.551-47.507,7.357-45.384L631.264,38.02,605.129,92.053l-.666-8.572L595.543,32.1l-16.5-3.172-16.59,104.749,1.05,44.975-32.268,68.727-52.7,111.854-18.129,30.63.456-10.962L465.3,250.26l2.818-80.56,1.956-94.143-9.352-39.093-6.793-7.243-2.8-1.479-6.432-4.088-12.91,10.079-.3,1.973-2.329,2.783-4.42,9.427-7.443,34.422-11.8,82.792-5.006,65.692-30.7-40.243-17.159-23.666.282-176.736-25.472,4.8-9.346,40.057-8.075,47.718-2.782,16.237-32.4-61.386-7.158,6.133,35.752,76.719-9.385,56.877L275.631,393.6l-14.568-82.176-12.592-77.983.268-11.6-.89-49.776,1.069-32.093-2.765-6.624-.213-5.473.514-96.5-16.891-6.709L217.215,129.781l1.044,16.407,2.87,42.82.851,24.436-2.417,125.583L203.2,583.838,194.569,701.3,180.278,825.7l-5.5,111.551.254,26.733c-.243-.158-.467-.312-.71-.47-1.613-1.053-3.282-1.989-4.94-2.949l-4.6-28.3-19.057-30.448-6.688,5.574,4.542,40.709.735,1.576c-21.043-6.567-43.816-8.414-65.752-8.945l1.682-22.82L91.8,793.728,94.022,772.1l9.263-19.546,29.508-65.777-11.266-18.7-17.99,14.981L120.01,542.181l27.563-249.267L157.1,185.54l8.186-59.9L160.834,3.071l-6.9-54H128.436L104.172,52.879,87.422,163.927,56.546,387.713,6.777,827.688l-6.2,97.161L-.671,939.081a34.737,34.737,0,0,0-13.753,4.549v267.019c26.3,0,59.475,15.787,85.61,19.012,60.917,7.519,119.579,27.284,179.065,46.122,59.232,18.752,114.084,24.282,174.487,31.525,61.044,7.321,121.756,24.6,182.858,29.922,51.971,4.521,105.661-1.9,157.834-2.552,45.764-.579,90.151,1.43,135.826,3.334,27.331,1.138,54.74-3.386,82.1-3.528,36.4-.191,69.8,10.942,105.8,15.929,105.918,14.677,217.226,8.625,323.525,2.544,104.285-5.959,208.529-.737,312.806.328,62.71.64,125.238-6.105,187.986-6.255,55.339-.134,108.164,3.966,163.34-6.158,128.42-23.565,249.613-85.348,380.613-67.637,129.263,17.48,255.909-58.652,384.867-59.644C2839.517,1199.269,2840.337,1184.775,2840.379,1169.636ZM644.945,1075.083l5.907-93.96,4.688-58,22.129-29.119,5.459-13.2-14.985,71.672-18.54,96.035-4.674,26.911ZM198.713,968.273l7.912-101.65,12.736-178.486,2.835-44.388,4.13-64.42,7.782-106.742,4.163-44.764,6.943-79.94,16.656,77.975,7.863,47.714-31.809,385.6L226.45,990.112l-.32,5.25C215.825,991.17,207.341,986,198.475,980Zm72.86,70.132,4.644-32.449L288.624,890.93l20.424-191.969L326.2,673.31l19.366-53.422-12.2-10.877-17.341,18.436L333.07,425.424,349.5,195.631l.2-2.2.077.113L399.2,261.51l-2.649,101.3-22.339,494.71-9.089,135.553-.972,20.6-15.813-40.316-10.888,6.729,17.49,59.98C330.271,1041.978,293.307,1054.366,271.573,1038.405Zm150.1-.758.273-5.108,2.732.231,12.863-21.127,1.9-32.477-13.079-12.522-.448.154,6.791-81.175L449.108,632.43l9.407-197.04,25.248-35.167,54.09-91.781,27.682-51.732.3,10.926,1.158,50.683-2.917,41.917L553.213,574.747,542.8,774.02l-6.012-14.709-27.955-60.547-14.675,9.07,21.264,65.846,24.889,44.226-9.581,187.674-.749,20.13L510.624,983.78l-19.977,17.051,18.383,47.13C479.978,1037.68,450.989,1036.716,421.669,1037.648Zm244.347,99.628c-3.346-2.491-6.744-4.885-10.122-7.316l31.271-117.417,51.891-230.328,44.28-230.142,10.355-85.227,12.855-32.255,19.946-58.007L857.8,262.741l5.061-21.957,20.687,76.5-12.592,164L858.736,657.3l-7.509,42.18-10.007,95.885L831.162,991.121l-8.009,141.16-9.233-45.3-15-61.593-10.175,2.018,8.854,62.394,17.468,59.162,7.338,1.941-.017.4c-11.871,1.09-23.51,2.082-34.779,2.7C751.258,1155.984,699.936,1162.538,666.016,1137.276ZM2685.33,564.328l-24.005-72.077-8.02-22.411-9.351-18.594L2609.87,382.4l-33.879-72.932-22.433-93.418-25.466-115.03,44.4,66.92,40,71.165,2.9,6.66,32.469,126.531,29.417,86.8,23.935,93.985,33.216,202.234,13.628,108.435,7.3,22.682.24,4.784,6.793,36.35c-5.031.531-10.059,1.021-15.087,1.406l-20.2-147.22-25.33-105.3Zm-112.383,364.84-1.163-.7-.238-4.112-.069-1.11ZM2056.262,351.78l13.112,82.29L2052.5,431.7l-9.094,17.513,14.471,32.17,17.858,12.028,3.168.2,26.826,160.816L2125.453,782.1l11.836,92.235,21.051,231.94q-12.627,1.057-25.19,1.219l-15.517-63.2-26.859-99.669L2034.755,731.6l-16.623-72.474-1.785-12.4-1.453-2.115L1981.778,487.1l3.539-12.016,6.768-232.593-1.11-35.722,13.319,28.483,38.906,90.635Zm-34.376-223.364,4.464,21.037,6.437,60.114,7.448,44.748-14.872-32.7-38.393-80.382-6.5-80.471Zm-489.379,36.391-.113-2.982,12.164,8.73,64.061,40.725,4.448,2.747,2.357,21.706,25.383,230.855,16.22,153.9-3.8-3.97-7.44,10.914,15.178,29.5,29.45,277.843,12.783,133.171,9.575,78.761c-1.307.353-2.608.737-3.915,1.1l-9.44-24.76L1665,1062.647l-7.73,8.746,25.978,69.768,6.711,12.384c-39.537,12.886-77.872,31.262-111.847,55.812l3.345-32.931,1.4-126.588-3.5-1.41-15.513,120.779-4.417,26.125.177-8.163-2.611-58.364L1546.3,1013.337l-9.216-239.115-7.067-240.557,4.671-242.8ZM1446.632,1268.9c-37.415-3.6-74.205-6.429-111.706-8.6a422.712,422.712,0,0,1-56.16-7.47l5.876-14.892,19.469-43.634,19.593-54.892,11.567-103.392h-3.5l-26.154,73.6,3.042-34.049,10.327-105.988-.829-95.557-3.312.636-3.647,43.76-5.122,56.055-14.41,97.72-15.731,93.892-4.851,26.251-6.133,16.695,4.111-69.217,1.829-131.494-9.241-269.048-2.078-201.16,30.652-86.486,46.427-142.29,4.379-14.183,13.764-7.6,71.423-81.767,55.914-88.536,5.868,6.218,4.014,30.063-.085,3.573-1.975,120.046L1487.63,519.32l13.681,234.8,2.7,186.155-6.437-9.123-4.315-1.908L1459.067,645.2l-15.264,3.03,28.533,310.041,18.538,150.818,8.694,45.4,3.832,38.315.782,6.048,3.15,56.679,1.624,2.054C1489.8,1266.6,1469.618,1271.111,1446.632,1268.9Zm536.5-135.877c-25.057,8.56-58.72,27.09-84.325,15.686-1.741-.774-3.343-1.572-4.89-2.382l5.962-2.414,11.26-60.07.724-65.461-13.255-2.544-7.846,57.392-2.591,49.192-.37-5.481-4.718-121.184-7.758-255.044,2.793-255.449L1875.586,336.9l16.562,49.63,55.527,149.436,28.569,67.9,8.274,20.932,78.089,308.012,35.044,119.555,4.94,22.706-12.194-22.01-27.5-32.36-3.9,5.716,19.383,40.705,27.066,35.415,3.376,1.28,1.138,3.962C2066.47,1109.238,2027.7,1117.8,1983.129,1133.022Zm261.077-41.057,14.358-37.084-9.418-27.033,3.022-101.548h-8.992l-8.142,66.316-7.337-22.97-23.988-107.39-40.059-205.637L2133.727,439.7l-30.082-215.214,123.869,121.832,8.123,40.146L2285.7,606.054l10.716,62.115-31.257-21.216-5.246,5.858,21.651,44.635,22.991,19.891,20.955,113.252,35.978,140.346-8.241-14.134-30.978-51.975-30.577-46.134-5.067,4.266,17.013,53.888,28.367,55.613,52.737,84.437.18.717c-20.776,6.413-41.965,11.918-63.832,16.634C2295.807,1079.694,2270.081,1086.167,2244.206,1091.965Z" transform="translate(-126.738 -85.521)"/><path class="e" d="M356.559,799.388c4.59-3.55,13.79-3.62,19.19-4.78,5.12-1.1,11.4-3.88,16.72-3.91,9.78-.07,20.6,2.21,30.99,1.84,31.43-1.09,62.92.56,94.28-1.5,13.99-.92,27.47-2.78,41.28-5.05,5.24-.86,14.59-3.9,18.88.13-7.83,15.84,42.74,11.96,48.33,16.69-2.84,1.61-11.63,3.42-12.55,6.91-1.2,4.58,11.02,7.51,13.59,8.18,14.13,3.67,32.88,2.73,47.36,1.9,26.5-1.52,52.83-4.14,79.42-4.39,9.83-.1,21.08-1.18,30.47,1.4,3.16,8.63-47.13,19.94-56.03,21.44,4.32-.15,6.78,1.47,10.38,2.73,6.86,2.4,8.7,3.33,17.19,3.46,21.14.33,42.19-2.3,63.47-1.68,9.29.27,22.32-.95,29.13,5.05-.63,15.33-44.43,19.83-58.03,22.43-16.03,3.06-32.15,5.79-48.31,8.34-6.2.97-14.34,1.5-19.99,3.98-7.57,3.32-9.97,8.17-6.72,14.66,3.39,6.75,12.9,8.36,16.12,13.97-4.78,4.19-13.03,6.53-19.11,9.18.21,5.27,39.49,6.37,44.87,14.31-8.04,4.9-20.62,5.17-27.62,10.72,10.96,4.95,26.43,3.51,38.33,3.08,19.36-.7,38.66-2.61,58.03-3.53,11.98-.57,29.58.68,41.34-2.15,2.32-.56,4.22-.26,6.23-1.18-4.66-12.64-40.68-8.23-53.84-15.31,7.4-15.13-25.78-8.41-36.05-15.04,9.96-8.98,30.81-13.23,45.09-16.16a400.506,400.506,0,0,1,44.13-6.41,289.284,289.284,0,0,1,42.65-.95c4.37.25,9.07,1.42,12.83-.6-9.12-5.4-56.83-4.72-22.71-18.43,17.53-7.05,35.93-8.97,55.22-9.11,6.05-.04,18.93,1.6,21.05-4.33-22.58-4.95,15.47-16.93,21.47-18.44,9.44-2.4,18.99-5.17,28.6-6.8,6.7-1.14,16.24-1.06,21.26-6.51-6.41-6.84-18.08-7.67-26.9-7.76-8.17-.08-17.06,2.3-25.17.58-2.63-.56-6.09-3.6-8.19-3.9-2.58-.37-4.09.79-7.17,1.29a136.231,136.231,0,0,1-26.27,2.04c-12.73-.31-43.55,5.19-53.41-4.53,9.37-6.57,24.24-7.64,35.03-11.12,5.3-1.71,19.39-2.64,22.51-7.21-6.23-5.34-15.03-5.69-22.83-6.54-13.47-1.46-26.86-2.99-40.27-4.81-14.06-1.91-28-2.5-42.2-3.05-9.68-.36-22.19,1.46-30.26-4.78,8.53-8.3,30.88-8.37,41.95-9.82,28.56-3.75,57.6-2.49,86.34-2.43,26.18.05,52.46-3.6,78.58-1.89,9.58.62,36.61-.18,41.97,9.53-2.74,4.84-11.67,6.6-16.74,8.4-11.75,4.16-24.11,7.8-36.64,8.08-8.8.2-40.68-1.35-41.84,11.04,9.84,3.22,23.39-.5,33.75-.73a213.953,213.953,0,0,1,32.8,1.88c8.68,1.13,27.82-8.18,32.82,2.39,3.68,7.8-5.17,14.35,8.73,18.79,13.01,4.17,29.58,2.5,43.1,2.87,5.62.15,10.95,1.32,16.45,1.44,5.32.11,10.55-1.2,15.84-1.53,6.39-.4,17.99-1.44,22-7.02-.9-1.82-5.17-2-5.1-4.09.06-2.02,7.43-4.01,8.87-4.42,4.28-1.19,25.7-3.94,19.4-12-1.36-1.74-7.27-3.13-6.04-6.39.26-.7,3.84-1.94,4.65-2.53,3.4-2.51,6.41-4.92,1.8-7.94-6.55-4.28-15.12-5.42-22.42-7.86-6.86-2.3-12.57-6.85-4.22-11.98a23.906,23.906,0,0,1,2.65-1.41c9.54-4.4,23.04-4.19,32.71-4.82,7.41-.47,14.83-.98,22.25-1.01,9.3-.04,18.3,1.78,27.55,2.26,17.27.9,35.47-1.07,52.15,3.57a57.519,57.519,0,0,1,13.84,5.79c7.31,4.29,14.83,7.81,22.02,12.33,2.09,1.32,5.28,2.67,4.33,5.01-.72,1.78-6.26,3.13-7.85,3.75a77.015,77.015,0,0,1-17.27,4.61c-6.49.94-12.86.44-19.38.98-2.08.17-5.36,1.44-6.33,3.63-.61,1.36-.76.91.6,1.86,2.04,1.43,6.02.51,7.23,3.39,2.54,6.03-22.73,7.6-25.96,7.87-12.24,1.03-24.94-1.01-37.05,1.24-3.36.62-2.92,2.45-3.41,5.27-.52,3.05-.3,6.33,2.28,8.44,10.88,8.91,26.82,1.72,39.25,1.96,1.72.03,29.33,5.44,26.94,7.35-8.51,6.82-31.08,7.73-41.84,8.55-12.39.95-24.76,2.09-37.2,2.67-13.36.63-26.72.7-40.09,1.38-3.56.18-6.92.67-10.22-.24,8,3.46,21.75,8.68,9.75,14.6-14.31,7.06-34.39,3-49.06,1.15-23.76-3-53.42-1.52-76.87,1.84-19.27,2.76-38.28,4.95-57.7,6.79-8.32.79-18.15,1.02-26.12,3.15,3.36,3.26,7.85,7.32,3.74,10.94,10.56,4.67,30.9,2.32,42.79,2.73,11.65.39,34.24-1.8,44.4,3.84-7.24,5.38-26.31,5.93-35.39,6.9q-28.065,3-56.24,5.2c-16.71,1.29-46.51,6.25-62.22-.73.95.66,1.61,1.72,2.3,2.26-9.73,2.2-68.13,10.47-57.41,21.37,6.94,7.05,33.06,3.69,42.31,3.1a201.591,201.591,0,0,0,30.5-4.25c1.89,4.65,13.18,5.72,18.31,8.66,13.25,7.59,1.79,9.18-6.41,16.41,32.81,12.25,74.42,9.82,109.74,9.74-1.98-.7,6.51-2.13,15.33-2.47,10.44-.41,17.71-.43,27.21,2.46,9.55,2.9,49.66,1.85,50.56,11.95a54.134,54.134,0,0,1-14.94,5.42H557.949a22.335,22.335,0,0,0,2.9-.9c10.36-4.07,21.55-6.09,33.88-7.77,17.17-2.34,34.81-3.54,52.18-4.35,9.76-.46,28.72,1.96,37.65-2.5-3.07-2.24-7.65-1.9-11.77-2.38,2.68-4.04,9.83-4.3,11.99-8.6-7.77-3.87-19.33-3.55-28.17-4.37-15.57-1.43-31.06-1.83-46.72-2.11-9.52-.16-73.32,1.04-73.99-13.16,13.02-9.56,51.46-12.26,68.36-11.57.69.47.57.88-.36,1.25,5.49,1.61,11.66-.13,17.32-.03,6.56.13,11.18,2.36,17.3,2.99,7.87.81,38.78-2.49,37.86-11.3-1.32-12.73-46.12-15.16-56.83-16.28-16.1-1.67-32.23-2.86-48.39-4.05-4.58-.34-15.35.21-18.47-3.76,4.28-3.46,11.36-2.98,15.08-6.79-3.55-7.99-27.39-1.77-32.2-11.06,15.78-15,55.46-10.22,76.84-9.53,14.31.46,28.64.76,42.96.26,5.49-.19,21.98.2,26.5-4.77-4.59-10.9-40.57-8.6-51.21-9.17-19.26-1.04-39.83-7.01-58.93-5.6-9.3.68-18.05,1.02-27.2,1.73-12.7.98-30.37,7.03-42.35,2.72,4.36-2.69,40.89-6.5,37.34-15.17-1.66-4.05-9.64-1.88-9.95-6.08-.24-3.13,7.18-5.94,9.22-6.5-4.33-6.3-15.61-7.2-22.61-8.14-19.41-2.62-39.52-.49-59.09-1.27-20.81-.82-41.64.15-62.46-.55C382.429,803.8,367.639,805.388,356.559,799.388Z" transform="translate(772.676 544.097)"/><path class="e" d="M356.559,799.388c4.59-3.55,13.79-3.62,19.19-4.78,5.12-1.1,11.4-3.88,16.72-3.91,9.78-.07,20.6,2.21,30.99,1.84,31.43-1.09,62.92.56,94.28-1.5,13.99-.92,27.47-2.78,41.28-5.05,5.24-.86,14.59-3.9,18.88.13-7.83,15.84,42.74,11.96,48.33,16.69-2.84,1.61-11.63,3.42-12.55,6.91-1.2,4.58,11.02,7.51,13.59,8.18,14.13,3.67,32.88,2.73,47.36,1.9,26.5-1.52,52.83-4.14,79.42-4.39,9.83-.1,21.08-1.18,30.47,1.4,3.16,8.63-47.13,19.94-56.03,21.44,4.32-.15,6.78,1.47,10.38,2.73,6.86,2.4,8.7,3.33,17.19,3.46,21.14.33,42.19-2.3,63.47-1.68,9.29.27,22.32-.95,29.13,5.05-.63,15.33-44.43,19.83-58.03,22.43-16.03,3.06-32.15,5.79-48.31,8.34-6.2.97-14.34,1.5-19.99,3.98-7.57,3.32-9.97,8.17-6.72,14.66,3.39,6.75,12.9,8.36,16.12,13.97-4.78,4.19-13.03,6.53-19.11,9.18.21,5.27,39.49,6.37,44.87,14.31-8.04,4.9-20.62,5.17-27.62,10.72,10.96,4.95,26.43,3.51,38.33,3.08,19.36-.7,38.66-2.61,58.03-3.53,11.98-.57,29.58.68,41.34-2.15,2.32-.56,4.22-.26,6.23-1.18-4.66-12.64-40.68-8.23-53.84-15.31,7.4-15.13-25.78-8.41-36.05-15.04,9.96-8.98,30.81-13.23,45.09-16.16a400.506,400.506,0,0,1,44.13-6.41,289.284,289.284,0,0,1,42.65-.95c4.37.25,9.07,1.42,12.83-.6-9.12-5.4-56.83-4.72-22.71-18.43,17.53-7.05,35.93-8.97,55.22-9.11,6.05-.04,18.93,1.6,21.05-4.33-22.58-4.95,15.47-16.93,21.47-18.44,9.44-2.4,18.99-5.17,28.6-6.8,6.7-1.14,16.24-1.06,21.26-6.51-6.41-6.84-18.08-7.67-26.9-7.76-8.17-.08-17.06,2.3-25.17.58-2.63-.56-6.09-3.6-8.19-3.9-2.58-.37-4.09.79-7.17,1.29a136.231,136.231,0,0,1-26.27,2.04c-12.73-.31-43.55,5.19-53.41-4.53,9.37-6.57,24.24-7.64,35.03-11.12,5.3-1.71,19.39-2.64,22.51-7.21-6.23-5.34-15.03-5.69-22.83-6.54-13.47-1.46-26.86-2.99-40.27-4.81-14.06-1.91-28-2.5-42.2-3.05-9.68-.36-22.19,1.46-30.26-4.78,8.53-8.3,30.88-8.37,41.95-9.82,28.56-3.75,57.6-2.49,86.34-2.43,26.18.05,52.46-3.6,78.58-1.89,9.58.62,36.61-.18,41.97,9.53-2.74,4.84-11.67,6.6-16.74,8.4-11.75,4.16-24.11,7.8-36.64,8.08-8.8.2-40.68-1.35-41.84,11.04,9.84,3.22,23.39-.5,33.75-.73a213.953,213.953,0,0,1,32.8,1.88c8.68,1.13,27.82-8.18,32.82,2.39,3.68,7.8-5.17,14.35,8.73,18.79,13.01,4.17,29.58,2.5,43.1,2.87,5.62.15,10.95,1.32,16.45,1.44,5.32.11,10.55-1.2,15.84-1.53,6.39-.4,17.99-1.44,22-7.02-.9-1.82-5.17-2-5.1-4.09.06-2.02,7.43-4.01,8.87-4.42,4.28-1.19,25.7-3.94,19.4-12-1.36-1.74-7.27-3.13-6.04-6.39.26-.7,3.84-1.94,4.65-2.53,3.4-2.51,6.41-4.92,1.8-7.94-6.55-4.28-15.12-5.42-22.42-7.86-6.86-2.3-12.57-6.85-4.22-11.98a23.906,23.906,0,0,1,2.65-1.41c9.54-4.4,23.04-4.19,32.71-4.82,7.41-.47,14.83-.98,22.25-1.01,9.3-.04,18.3,1.78,27.55,2.26,17.27.9,35.47-1.07,52.15,3.57a57.519,57.519,0,0,1,13.84,5.79c7.31,4.29,14.83,7.81,22.02,12.33,2.09,1.32,5.28,2.67,4.33,5.01-.72,1.78-6.26,3.13-7.85,3.75a77.015,77.015,0,0,1-17.27,4.61c-6.49.94-12.86.44-19.38.98-2.08.17-5.36,1.44-6.33,3.63-.61,1.36-.76.91.6,1.86,2.04,1.43,6.02.51,7.23,3.39,2.54,6.03-22.73,7.6-25.96,7.87-12.24,1.03-24.94-1.01-37.05,1.24-3.36.62-2.92,2.45-3.41,5.27-.52,3.05-.3,6.33,2.28,8.44,10.88,8.91,26.82,1.72,39.25,1.96,1.72.03,29.33,5.44,26.94,7.35-8.51,6.82-31.08,7.73-41.84,8.55-12.39.95-24.76,2.09-37.2,2.67-13.36.63-26.72.7-40.09,1.38-3.56.18-6.92.67-10.22-.24,8,3.46,21.75,8.68,9.75,14.6-14.31,7.06-34.39,3-49.06,1.15-23.76-3-53.42-1.52-76.87,1.84-19.27,2.76-38.28,4.95-57.7,6.79-8.32.79-18.15,1.02-26.12,3.15,3.36,3.26,7.85,7.32,3.74,10.94,10.56,4.67,30.9,2.32,42.79,2.73,11.65.39,34.24-1.8,44.4,3.84-7.24,5.38-26.31,5.93-35.39,6.9q-28.065,3-56.24,5.2c-16.71,1.29-46.51,6.25-62.22-.73.95.66,1.61,1.72,2.3,2.26-9.73,2.2-68.13,10.47-57.41,21.37,6.94,7.05,33.06,3.69,42.31,3.1a201.591,201.591,0,0,0,30.5-4.25c1.89,4.65,13.18,5.72,18.31,8.66,13.25,7.59,1.79,9.18-6.41,16.41,32.81,12.25,74.42,9.82,109.74,9.74-1.98-.7,6.51-2.13,15.33-2.47,10.44-.41,17.71-.43,27.21,2.46,9.55,2.9,49.66,1.85,50.56,11.95a54.134,54.134,0,0,1-14.94,5.42H557.949a22.335,22.335,0,0,0,2.9-.9c10.36-4.07,21.55-6.09,33.88-7.77,17.17-2.34,34.81-3.54,52.18-4.35,9.76-.46,28.72,1.96,37.65-2.5-3.07-2.24-7.65-1.9-11.77-2.38,2.68-4.04,9.83-4.3,11.99-8.6-7.77-3.87-19.33-3.55-28.17-4.37-15.57-1.43-31.06-1.83-46.72-2.11-9.52-.16-73.32,1.04-73.99-13.16,13.02-9.56,51.46-12.26,68.36-11.57.69.47.57.88-.36,1.25,5.49,1.61,11.66-.13,17.32-.03,6.56.13,11.18,2.36,17.3,2.99,7.87.81,38.78-2.49,37.86-11.3-1.32-12.73-46.12-15.16-56.83-16.28-16.1-1.67-32.23-2.86-48.39-4.05-4.58-.34-15.35.21-18.47-3.76,4.28-3.46,11.36-2.98,15.08-6.79-3.55-7.99-27.39-1.77-32.2-11.06,15.78-15,55.46-10.22,76.84-9.53,14.31.46,28.64.76,42.96.26,5.49-.19,21.98.2,26.5-4.77-4.59-10.9-40.57-8.6-51.21-9.17-19.26-1.04-39.83-7.01-58.93-5.6-9.3.68-18.05,1.02-27.2,1.73-12.7.98-30.37,7.03-42.35,2.72,4.36-2.69,40.89-6.5,37.34-15.17-1.66-4.05-9.64-1.88-9.95-6.08-.24-3.13,7.18-5.94,9.22-6.5-4.33-6.3-15.61-7.2-22.61-8.14-19.41-2.62-39.52-.49-59.09-1.27-20.81-.82-41.64.15-62.46-.55C382.429,803.8,367.639,805.388,356.559,799.388Z" transform="translate(-356.559 523.713)"/><path class="f" d="M-113.752,327.737q7.014-.162,13.985-.924a147.2,147.2,0,0,0,22.6-4.245q-.765-2.394-1.519-4.839-.866-2.8-1.742-5.637l-.056-.18h0c-.313-1.009-.629-2.014-.947-3.024l.01,0c-.015-.026-.025-.058-.038-.085-5.44-17.25-11.965-34.533-26.411-44.466-12.982-8.926-29.152-14.42-44.9-14.05-2.323,1.555-4.559,3.232-6.732,4.986h0v0q-1.579,1.272-3.1,2.613l-.33.288q-1.445,1.28-2.836,2.618l-.439.424q-1.357,1.318-2.664,2.685l-.441.471c-.867.922-1.722,1.856-2.553,2.811-.114.13-.224.263-.336.395a100.354,100.354,0,0,0-9.664,13.257c-.1.165-.209.327-.308.493-.513.851-1,1.717-1.485,2.583-.273.485-.552.965-.817,1.454-.415.769-.811,1.548-1.207,2.327-.307.605-.614,1.21-.909,1.821-.351.726-.687,1.459-1.019,2.194q-.467,1.028-.909,2.065t-.865,2.1q-.377.947-.735,1.9a120.263,120.263,0,0,0-38.357-21.817c-5.265-1.812-10.893-3.27-16.357-2.2-5.9,1.15-10.831,5.081-15.278,9.118q-5.825,5.288-11.127,11.114-.25.272-.5.544-2.072,2.289-4.062,4.644l-.051.061c-1.223,1.457-2.416,2.942-3.59,4.44q-.43.546-.854,1.1c-1.181,1.533-2.346,3.08-3.474,4.654l-.013.019c2.644.592,5.309,1.15,7.985,1.693a399.647,399.647,0,0,0,98.2,7.657,237.649,237.649,0,0,0,41.438,8.072q1.857.184,3.715.33a182.132,182.132,0,0,0,18.53.551Z" transform="translate(2226.168 1096.734)"/><path class="f" d="M-153.986,210.944c-.047-.21-.127-.406-.185-.61a11.438,11.438,0,0,0-.414-1.237c-.094-.225-.21-.44-.32-.659-.178-.363-.359-.723-.571-1.071-.131-.215-.273-.425-.414-.635-.23-.341-.464-.678-.719-1.007-.06-.079-.109-.163-.172-.243l-.019,0a61.665,61.665,0,0,0-4.7-5.013,106.784,106.784,0,0,0-40.659-25.438c-4.678-1.61-9.68-2.9-14.536-1.956-5.238,1.022-9.622,4.515-13.574,8.1-2.121,1.924-4.173,3.92-6.181,5.964l0-.009c-1.518,1.546-2.993,3.132-4.442,4.742-.509.565-1,1.144-1.5,1.717q-1.665,1.9-3.261,3.862c-.468.573-.936,1.144-1.4,1.724-1.453,1.84-2.881,3.7-4.246,5.61a365,365,0,0,0,60.865,8.291,328.333,328.333,0,0,0,36.7-.148A10.3,10.3,0,0,0-153.986,210.944Z" transform="translate(2291.422 1101.244)"/><path class="f" d="M-69.007,495.985c-.756-1.9-1.551-3.75-2.368-5.567-.146-.31-.29-.615-.434-.927l0,0q-1.99-4.331-4.221-8.393h0c-.234-.427-.48-.841-.719-1.263l-.007-.015a137.405,137.405,0,0,0-11.424-16.991h0l-.024-.034c-7.357-9.4-16.033-18.3-26.131-27.772h0l-.032-.029c-.819-.771-1.639-1.541-2.477-2.319l-.024-.022h0c-1.253-1.161-2.514-2.326-3.809-3.509-12.661-5.738-25.475-11.088-38.443-15.938h0c-.468-.176-.934-.351-1.4-.524h0c-32.383-12.01-65.751-20.769-100.288-23.892a215.5,215.5,0,0,0-40.8,26.146l-.01.007c-.795.644-1.592,1.287-2.378,1.943l0,0q-1.763,1.467-3.494,2.973l0,0c-.831.724-1.651,1.458-2.47,2.192l0,0q-2.173,1.95-4.3,3.948l0,0c-1.309,1.236-2.614,2.48-3.894,3.748l0,0c-.949.944-1.878,1.909-2.809,2.87l-.007.007c-.927.953-1.848,1.909-2.758,2.88l0,0q-1.328,1.419-2.636,2.858l0,0c-.649.717-1.283,1.451-1.922,2.178-1.088,1.236-2.187,2.46-3.246,3.719l0,.007c-1.512,1.8-2.987,3.624-4.443,5.467-.7.89-1.385,1.792-2.073,2.692l0,0q-1.562,2.048-3.08,4.128v0c-.592.812-1.183,1.627-1.761,2.446l0,0c-.532.756-1.041,1.529-1.565,2.29-1.209,1.763-2.412,3.529-3.568,5.323-1.2,1.87-2.387,3.753-3.533,5.657v0c-.417.693-.819,1.395-1.229,2.092h0q-1.5,2.564-2.936,5.17h0c-.388.707-.778,1.409-1.156,2.119h0c-1.268,2.37-2.5,4.757-3.68,7.176q8.95,1.017,17.962,2.007c54.054,5.906,109.578,10.676,164.649,11.08C-141.269,502.213-104.753,500.547-69.007,495.985Z" transform="translate(666.414 946.253)"/><path class="g" d="M-174.386-173.469s83.509,41.73,93.025,46.242c5.942,2.815,20.507,3.44,33.375,4.6,7.685.715,14.744,1.653,18.988,3.306a120.307,120.307,0,0,1,11.482,5.674c20.15,10.9,57.68,33.911,76.579,51.872C82.743-39.21,85.022-25.672,94.047-20c9.025,5.63,42.891,1.117,59.825,10.142s67.018,60.941,86.006,72.245c0,0,38.951,4.973,79.242,13.913-.1,11.21-.085,23.425.022,36.4v.938c-.9,106.424-1.39,294.878,5.938,294.878,1.251,0,2.279-4.87,3.172-13.448.313-1.385.67-6.076,1.072-13.493.089-1.921.179-4.021.313-6.3.8-13.85,1.385-31.23,1.792-50.621.04-2.189.13-4.468.174-6.836,1.827-92.855.71-225.4.594-238.471l.049.009c.246,4.244,1.309,19.8,4.361,33.478v.357c2.01,8.98,4.915,17.067,8.98,20.195.045,0,.089.045.134.089,7.64,5.629,13.27-11.84,16.174-24.082l.268-1.162c.715-3.083,1.206-5.764,1.519-7.551l.4-2.145s6.657,185.907,16.665,195.96c.625.625,1.206.4,1.742-.536,8.44-14.2,10.276-193.056,10.276-193.364l.009,0,2.672,4.191,6.746,10.633s8.891,254.221,11.214,260.878c1.117,3.172,1.162-69.118.938-145.563v-.223c-.147-40.318-.371-81.739-.563-113.863a454.4,454.4,0,0,1,45.956,45.058s5.63,46.287,13.542,59.824c3.5,5.991,23.7,23.666,48.516,47.382-.2,139.759,1.443,333.5,11.438,341.232,1.653,1.251,3.038-2.859,4.244-11.214,5.956-42.185,6.505-192.542,5.951-308.831,25.918,26.106,53.042,56.5,70.047,85.93C652.751,443.9,728.392,564.665,741.93,583.877c13.538,19.167,41.774,68.85,62.058,110.575,20.329,41.779,68.85,264.144,77.875,332.993,0,0-14.655,21.446-16.933,37.262l-13.984,92.663L959.782,1268.44l14.386-39-15.235-356.49v-.491l5.361-360.824s-8.131-8.042-21.49-20.552C901.521,452.432,810.064,371.43,752.072,354.05c0,0-28.192-17.38-78.992-20.776,0,0-30.247-58.261-35.832-75.641-1.675-9.333,4.066-30.891,4.066-30.891h0A173.055,173.055,0,0,1,649.356,208s32.749-4.513,42.891-10.142c0,0,.174-.107.424-.281.08-.049.094-.063.2-.121a12.375,12.375,0,0,0,3.351-3.306,2.033,2.033,0,0,0,.188-.25c4.075-5.071,9.767-16.008,10.736-37.7l.022-.112c0-.045,0-.045.045-.089,2.145-9.159,33.777-46.242,28.594-58.618-5.183-12.421-17.6-51.916-50.308-49.638l-.089.089c-.8,1.251-11.259,17.067-25.109,34.894-13.672,17.514-30.56,36.9-44.812,46.242,0,0-64.337,20.329-73.362,15.816,0,0-4.244-15.816-19.614-17.648v.009c-12.139-12.729-25.815-28.961-31.186-37.673C482.3,74.81,477.79,24.01,483.465,12.707c1.966-3.932,7.863-7.193,14.744-10.187l.089-.045C503.615.2,509.557-1.948,514.74-4.048h.045c.5-.192,1.019-.393,1.524-.612a.487.487,0,0,1,.085-.013v-.018l.067-.027h.022c.045,0,.045-.045.089-.045a.387.387,0,0,1,.273-.134.263.263,0,0,0,.174-.045.594.594,0,0,1,.313-.134,1.588,1.588,0,0,1,.4-.179c5.764-2.547,10.142-5.093,10.857-8,2.279-9.025-4.691-23.456-4.691-23.456s-3.239-6.161-7.984-16.352C556.465-31,760.167,75.788,958.933,106.777L954.97,82.718S735.188,71.807,510.9-64.14l.13-35.729s-2.573-2.422-10.3-3.436a49.848,49.848,0,0,0-5.428-.8c-11.031-33.616-14.333-69.368-14.333-69.368H427.036S452.243-126.86,464.95-94c-1.421,14.337-3.5,50.5,10.915,56.532a115.92,115.92,0,0,1-.308,12.957S457.462-20,450.715-13.252c0,0-11.3,54.195-29.354,72.245,0,0-2.9-.223-7.953-.626,0,0-.491-10.633-7.863-10.633a11.473,11.473,0,0,0-7.015,2.1,7.572,7.572,0,0,0-2.547,2.815l-.268-.536c-.621-.983-2.457-3.083-7.1-4.378-5.9-1.608-12.331,2.1-13,2.457l-.045.045s-3.664-.268-9.114-.76c-7.372-.625-18.005-1.7-27.477-2.949a7.576,7.576,0,0,1-.983-.179c-7.863-1.072-14.789-2.368-18.095-3.708-.058,1.363-.107,2.833-.165,4.267-21.7-3.7-42.561-8.306-57.515-13.873-1.144-.429-2.27-.911-3.4-1.389,0,0-2.922-1.443-7.394-3.512-2.757-1.47-5.455-3.047-8.073-4.758-21.28-15.083-42.57-42.838-42.57-42.838A219.263,219.263,0,0,1,183.27-48.19l-.045-.045s6.626-26.7,1.568-39.782l.085.134-.085-.134a14.787,14.787,0,0,0-1.568-3.11c-7.908-11.259-33.862-82.342-33.862-82.342l-9.047-.089.018.089H105.306s21.044,24.707,32.888,45.751c4.151,7.417,7.189,14.342,7.77,19.659,1.43,12.823-2.185,28.728-5.049,38.736-.76,2.636-1.474,4.915-2.011,6.568l-7.64,2.993v.045a76.589,76.589,0,0,1-6.948-4.414h0c-15.995-11.1-61.947-61.442-61.947-61.442s-18,.581-31.543,22.026c0,0-57.769-40.613-80.243-49.638S-102.9-157.7-102.9-157.7l-36.726-15.771ZM954.733,1157.057a1.768,1.768,0,0,0,.223.313c-.089-.045-.134-.089-.223-.134ZM516.393-4.7v-.013c.022-.022.036,0,.045,0Z" transform="translate(1891.387 51.559)"/><path class="h" d="M-280.293-177.234s95.269,77.8,136.493,138.127C-102.512,21.221-67.572,83.184-67.572,83.184S35.615,135.531,43.533,157.777c7.981,22.246-9.489,98.411-7.918,115.881s33.369,84.146,23,112.739c-10.306,28.593-107.146,188.9-150,277.825,0,0-20.927,78.678-30.479,174.827-4.336,43.738-6.284,91.121-2.828,136.368L-50.1,1251.483H8.656Q.05,1225.156-7.985,1201.932c-7.158-22.787-14.7-49.161-18.3-69.346-7.918-44.492,0-74.782,0-74.782S61,1072.257,105.5,1118.258c44.43,46.063,60.329,142.9,60.329,142.9h92.127s-28.656-43.487-61.271-96.525a1.373,1.373,0,0,1-.251-.314c-31.233-50.9-66.047-110.54-82.575-148.748C80.107,937.272,45.167,819.82,45.167,819.82s2.394-16.716,7.428-42.588c8.39-39.4,20.845-88.771,21.109-89.814,6.335-22.667,13.781-46.2,22.428-68.819,9.929-26.079,21.492-50.965,34.752-71.891,0,0,77.8-112.676,185.762-171.434,0,0,38.082-19.041,38.082-88.922a.194.194,0,0,0-.063-.126c-1.005-2.451-17.6-42.23-23.754-76.039C324.563,175.247,337.76,75.2,347.061,26c5.624-29.938,33.112-155.654,53.774-249.515,4.412-6.1,6.73-9.558,6.73-9.558S375.56,534.24,385.854,529.043s29.479-792.811,29.479-792.811c-2.91,5.115-5.926,10.067-8.936,15.026,10.545-47.81,18.212-82.393,18.212-82.393H388.1s-8.063,66.009-18.5,136.619C298.346-100.177,212.447-39.5,149.372-4.016c2.244-25.828,3.758-46.874,3.758-58.908,0-49.9-14.454-255.579-15.773-274.746-.063-.943-.126-1.445-.126-1.445H30.839S73.7-204.194,76.9-159.764C79.1-129.242,71.573-27.77,63.542,36.53c-1.546.559-2.4.848-2.4.848V54.471c-2.878,20-5.706,33.9-8.056,36.631-1.445,1.678-5.116,1.345-10.35-.49-10.319-4.946-22.843-11.8-32.383-17.175C3.547,69.17-3.668,64.394-11.014,59.3-42.121,37.874-75.427,11.041-88.184-4.167c-25.451-30.164-128.638-204.8-138.127-231.762-9.552-27.022-15.9-103.187-15.9-103.187l-14.705,1.823-50.4,6.158s33.369,79.307,34.94,103.124S-280.293-177.234-280.293-177.234ZM164.19,427.685s-1.364-5.631-3.538-14.9h0l-15.4-68.944-.006-.006c-6.052-28.732-11.839-58.845-14.366-79.665-4.581-37.825,9.037-164.119,16.974-251.187C249.423-50.337,324.9-129.726,367.566-180.942c-9.879,65.4-21.467,131.378-30.309,149.816C318.216,8.527,300.746,8.527,300.746,8.527s14.265,165.149,6.347,214.355S278.5,329.211,278.5,329.211,216.6,427.685,164.19,427.685Z" transform="translate(-52.749 235.57)"/></g></svg>