<svg xmlns="http://www.w3.org/2000/svg" xmlns:xlink="http://www.w3.org/1999/xlink" width="2560" height="1400" viewBox="0 0 2560 1400"><defs><style>.a{fill:#90a2ab;}.b{clip-path:url(#a);}.c{fill:#05090b;}.d{isolation:isolate;}.e{fill:#010202;}</style><clipPath id="a"><rect class="a" width="2560" height="1400"/></clipPath></defs><g class="b"><path class="c" d="M806.125,759.376c-6.8-22.24-81.183-15.535-95.54-11.448-9.071,2.583-16.03,8.471-24.97,9.082,21.822-16.851,80.961-53.888,79.158-87.174-25.578-9.6-78.221,12.722-101.227,23.855-19.688,9.524-34.748,25.221-52.253,37.74-5.845,4.179-15.17,8.909-22.87,14.843,6.125-10.641,12.644-21.04,19.71-31.075-11.65.856-22.159,1.116-34.592,2.377a473.425,473.425,0,0,1,49.547-22.089.022.022,0,0,1,.024-.022c1.451-1.808,2.949-3.592,4.47-5.4,18.521-21.612,40.253-40.943,54.017-65.884a109.107,109.107,0,0,0,11.032-30.243c-21.016,10.533-40.441,21.019-61.768,31.552a263.141,263.141,0,0,1,64.717-57.776,141.621,141.621,0,0,0-7.132-47.814c-36.878,1.808-71.542,20.139-97.53,46.577a240.962,240.962,0,0,0-12.125,55.992c-3.091-10.152-8.156-19.686-9.535-29.243a221.675,221.675,0,0,0-19.915,37.438q-2.591-1.487-5.249-2.865a439.872,439.872,0,0,0-33.8-103.1,126.115,126.115,0,0,0-2.506,24.532c-.195,22.649,5.017,45.332,11.2,67.913q-5.355-1.839-10.8-3.432h-.035c-9.568,2.064-18.762,4.317-27.813,6.943q-.1-6.216.05-12.429c.591-.287,1.173-.6,1.767-.878-.582-.12-1.16-.23-1.742-.346a316.033,316.033,0,0,1,11.348-76.284c9.4-33.791,24.407-65.963,31.933-100.238.639-2.966,1.215-6.028,1.648-9.124,2.125-15.076,1.114-31.182-8.5-42.359-34.341,26.618-50.729,70.45-58.4,113.244a394.318,394.318,0,0,0-6.166,69.833,400.628,400.628,0,0,0,2.211,41.783c-10.1.554-19.992,3.586-29.492,8.209a171.422,171.422,0,0,0-38.71-21.586,359.978,359.978,0,0,1,15.382,36.26q-2.5,1.908-4.936,3.894a254.443,254.443,0,0,0-44.143-48.694l-.024,0a129.931,129.931,0,0,0-32.635.114c.252-.387.5-.779.753-1.167-1.162.508-2.309,1.051-3.467,1.567a108.983,108.983,0,0,0-28.971,8.662,208.347,208.347,0,0,1,54.035-42.516q11.962-17.324,24.922-33.969c16.485-21.1,34.255-42.263,49.952-64.612-17.7.753-35.076,2-53.1,5.151a302.773,302.773,0,0,1,68.8-29.391,223.836,223.836,0,0,0,21.24-46.161c-33.362-1.394-67.293.786-99.082,11.155-20.988,6.865-41.048,17.521-57.71,31.966a211.48,211.48,0,0,0-7.543,68.4c-6.722-12.622-14.66-24.385-18.7-37.758-1.2,1.933-2.323,3.9-3.421,5.888-34.428,6.9-65,42.79-86.8,69.355-.175-.823-.366-1.642-.543-2.463,19.6-43.136,51.758-88.019,63.382-131.314-31.062,15.828-56.215,53.015-74.592,87.614-9.209-29.807-22.12-59.886-44.817-80.745-7.038,41.549-5.836,85.024,7.944,124.848,2.362,6.825,5.076,13.493,8.042,20.049-6.654,18.372-12.315,37.554-17.153,56.723-7.075-7.355-14.333-14.522-21.883-21.305a159.807,159.807,0,0,1,4.148,20.918c.823,6.613,3.218,11.37,1.861,17.877q-8.53-25.315-19.059-49.88a212.555,212.555,0,0,0-26.423-18.2c-40.868-23.634-93.288,2.789-139.02,14.66,10.155,16.52,21.1,34.076,36.221,46.268a448.019,448.019,0,0,1,94.861,3.54c-23.527,1.038-49.094,5.864-72.871,11.335,8.438,5.078,17.127,9.691,25.852,14.3Q42.717,661.9,78.689,680.977q8.205,4.344,16.411,8.723h.072a347.726,347.726,0,0,1,38.576,2.635c-1.116,2.233-2.1,4.549-3,6.906-3.66,1.324-7.259,2.708-10.833,4.152q4.019,2.289,8,4.63c-9.767,37.053,2.879,84.225,26.511,107.126,38.85,37.648,102.731,42.72,153.776,46.625,68.6,5.249,140.76,8.327,210.912,6.3a13.124,13.124,0,0,0,9.8.968l.048,0c1.011.223,1.953.418,2.758.51.048-.427.118-.827.164-1.252a.42.42,0,0,1,.16.055h0c.118.4.215.832.309,1.237.142-.357.287-.689.429-1.022v0a33.029,33.029,0,0,0,7.578,1.467c1.169-1.009,2.373-1.957,3.581-2.9q14.263-.67,28.376-1.637c5.678-.4,41.094-4.527,77.523-12.009,4.426,1.158,8.872,2.371,13.329,3.562q-1.533-2.876-3.067-5.759c5.1-1.138,10.159-2.338,15.113-3.605a133.507,133.507,0,0,1,12.355,15.1c10.842,2.007,21.642,3.036,32.3,1.961a104.634,104.634,0,0,0-6.644-29.529c19.114-8.5,28.951-18.674,18.166-30.37C744.965,793.121,812.046,778.742,806.125,759.376ZM282.1,600.246c-1.073.613-2.15,1.191-3.218,1.817,1-1.27,2.069-2.484,3.1-3.73C282.032,598.97,282.045,599.611,282.1,600.246Zm-59.33,33.529a102.19,102.19,0,0,0-14.473.532q-3.047-8.6-5.871-17.243a310.739,310.739,0,0,1,24.611-21.121A310.726,310.726,0,0,0,222.774,633.774Zm-36.762,2.918q1.136-1.763,2.362-3.474c.578,1.073,1.14,2.15,1.712,3.224C188.508,636.6,187.129,636.69,186.012,636.692Zm37.245-112.124c6.939-9.213,21.012-23.339,32.036-37.471-4.382,12.221-7.9,24.838-11.3,37.34-2.368,8.638-4.724,17.319-6.965,26.036-16.275,5.759-31.674,14.55-46.465,23.812-.563-2.445-1.138-4.886-1.677-7.337C200.225,552.822,212.376,539.018,223.258,524.568Zm-9.774,202.117c-3.647-7.445-7.388-14.846-11.321-22.137a137.7,137.7,0,0,0-6.587-20.933c4.279-2.346,8.78-4.914,13.21-7.626q6.675,15.951,12.23,32.34A123.457,123.457,0,0,0,213.484,726.685Zm7.3-58.627q1.379-1,2.7-2.007.637,6.715,1.613,13.386Q222.944,673.749,220.782,668.058Zm45.559,66c-.83-14.088,8.87-38.04-5.424-46.606,6.814-20.182,17.245-39.1,28.514-57.454a132.417,132.417,0,0,0,12.39,23.464A266.289,266.289,0,0,0,270.5,730.6C269.1,731.672,267.711,732.806,266.341,734.058Zm45.684-6.412c-2.736-3.942-7.182-6.3-12.6-6.935,5.19-7.992,10.708-15.807,16.131-23.56,3.48-4.976,6.948-10.028,10.3-15.163q5.648,5.391,11.65,10.336Q323.963,709.386,312.025,727.646Zm86.125-20.228c-.247-1.3-.523-2.6-.733-3.916.873,1.184,1.788,2.309,2.688,3.459C399.453,707.114,398.8,707.26,398.15,707.418ZM409.6,752.763c-.2,0-.4.017-.6.024a40.406,40.406,0,0,0,2.633-11.538q1.652,1.014,3.3,2.038C413.118,746.5,411.359,749.7,409.6,752.763ZM448.438,631.99c-.668-.65-1.346-1.289-2.023-1.933q5.07-4.173,10.452-7.946c.309,2.029.639,4.054.978,6.077C454.718,629.388,451.585,630.642,448.438,631.99Zm82.185,64.5c-2.32,13.685-3.89,27.494-4.958,41.348-2.283,2.493-4.441,5.061-6.42,7.589a293.1,293.1,0,0,0-25.291-55.081c1.718-.893,3.439-1.78,5.155-2.682-3.369-1.718-6.707-3.48-10.041-5.26-.86-1.357-1.688-2.736-2.572-4.078-.49-2.445-.93-4.9-1.362-7.353a267.712,267.712,0,0,1,32.675,6.751q7.647-4.144,15.233-8.368.818,3.635,1.583,7.285Q532.326,686.515,530.623,696.489Z" transform="translate(2236.393 722.478)"/><path class="c" d="M1799.808,962.367s-16.45-4.889-38.388-.866c-8.313-6.267-21.24-10.368-40.778-10.479,21.014-31.64,47.334-58.457,78.761-78.577-35.49,13.127-69.511,39.522-96.95,79.5q-5.923.664-11.285,1.78c8.8-46.014,22.246-88.654,40.327-126.124,10.793-16.464,21.822-31.569,32.586-46.387a111.816,111.816,0,0,0-11.926,9.064,298.941,298.941,0,0,1,36.453-46.936c-28.1,17.786-54.229,47.646-75.489,89.513a348.527,348.527,0,0,0-32.728,54.487c15.6-89.222,43.772-146.169,70.016-200.084,0,0-80.63,72.575-96.84,270.49-.127.439-.252.879-.378,1.32,3.247-62.315,9.558-133.9,18.914-213.927a8.98,8.98,0,0,0,6.713-7.642c3.717-31.315,7.2-58.1,9.506-75.527a8.982,8.982,0,0,0-17.81-2.351c-2.307,17.475-5.8,44.34-9.535,75.76a8.979,8.979,0,0,0,4.754,9.008c-8.585,73.46-16.621,157.512-19.931,235.829q-1.071,1.379-2.074,2.808c-1.939-18.8-4.637-36.292-7.906-52.51-3.558-47.278-8.4-94.621-13.451-137.854a8.011,8.011,0,0,0,4.243-8.039c-3.328-28.042-6.451-52.019-8.51-67.614a8.016,8.016,0,0,0-15.9,2.1c2.053,15.551,5.167,39.458,8.484,67.406a8.014,8.014,0,0,0,5.991,6.821q6.255,53.5,10.474,101.272c-15.427-54.473-36.906-91.271-53.683-113.819-24.117-47.847-47.506-67.86-47.506-67.86,25.852,50.478,53.571,103.754,69.309,186.4-19.247-39.754-43.734-69.274-70.661-88.5V816.4c39.244,42.426,66.293,99.513,81.114,164.515,2.019,27.725,2.855,58.191,2.239,91.912-7.364-105.39-40.1-180.752-83.353-225.824v16.1c26,37.984,44.378,83.78,55.121,134.16-14.31-41.048-35.357-62.094-55.121-72.655v15.666c37.3,39.522,64.9,126.937,56.919,265.147h29.727q1.85-11.445,3.431-22.566-1.31,11.289-2.993,22.617h21.042c.205-1.168.4-2.324.6-3.487.036.478.068.951.1,1.431l8.246.673c.1.869.154,1.332.154,1.332h9.3c-.024-.191-.045-.376-.069-.566l.466.037h0l9.42.768.048,0h0l2.031.166c.146-3.621.329-7.184.529-10.72q.749,5.127,1.541,10.31h21.042a880.181,880.181,0,0,1-7.484-110.736c15.6-58.729,40.8-97.312,68.091-117.09,14.608,13.662,23.247,33.616,18.256,50.818,0,0,20.98-39.274,1.771-61.872A65.752,65.752,0,0,1,1799.808,962.367Zm-105.016,1.358q-3.924,6.392-7.625,13.2.818-5.3,1.713-10.557A42.982,42.982,0,0,1,1694.792,963.725Zm-44.026,106.262q.3-2.852.618-5.663c.12,3.364.263,6.764.418,10.181q-.443,2.021-.867,4.064Q1650.833,1074.33,1650.766,1069.987Zm23.89-122.208q-1.206,5.892-2.328,11.927c-.338.151-.677.3-1.01.456.039-.488.078-.974.118-1.461Q1673.011,953.141,1674.656,947.779Zm-55.992-14.456a618.966,618.966,0,0,1,8.553,65.547q-1.614-8.373-3.447-16.432C1622.574,965.116,1620.841,948.75,1618.664,933.323Zm65.5,91.253a344.478,344.478,0,0,1,29.8-63.041,54.361,54.361,0,0,1,22.6,8.2C1718.506,978.636,1699.571,995.063,1684.165,1024.576Z" transform="translate(-1551.664 383.175)"/><g class="d" transform="translate(2093.848 -366.07)"><g transform="translate(351.006 -1.714)"><path class="e" d="M311.425-2.613,286.93,852.829l4.2,6.853L319.316-2.292Z" transform="translate(-272.427 2.613)"/><path class="e" d="M297.814,52.374s20.546,17.866,23.338,58.12c0,0-19.714-9.149-25.251-30.483Z" transform="translate(-256.005 103.286)"/><path class="e" d="M295.825,95.014s20.544,17.866,23.338,58.123c0,0-19.717-9.149-25.251-30.486Z" transform="translate(-259.646 181.354)"/><path class="e" d="M291.688,217.811s20.546,17.866,23.338,58.12c0,0-19.714-9.146-25.251-30.483Z" transform="translate(-267.221 406.178)"/><path class="e" d="M289.719,266.015s13.24,11.513,15.04,37.455c0,0-12.7-5.894-16.275-19.643Z" transform="translate(-269.581 494.433)"/><path class="e" d="M288.727,285.469s13.24,11.516,15.04,37.458c0,0-12.708-5.894-16.275-19.646Z" transform="translate(-271.397 530.05)"/><path class="e" d="M293.918,129.7s28.722,6.024,31.513,46.279c0,0-27.89,2.695-33.427-18.641Z" transform="translate(-263.138 244.85)"/><path class="e" d="M293.918,174.488s7.918,21.905,10.712,62.16c0,0-7.089-13.189-12.626-34.522Z" transform="translate(-263.138 326.86)"/><path class="e" d="M288.305,296.667s-3.179,15.1-1.764,22.174,7.785,14.627,7.785,14.627,2.582-20.764-1.551-31.043Z" transform="translate(-273.803 550.553)"/><path class="e" d="M297.583,283.5s-13.418,14.149-15.776,28.776a46.831,46.831,0,0,0,16.1-14.389Z" transform="translate(-281.807 526.449)"/><path class="e" d="M300.508,256.7s-15.635,9.65-18.7,34.5c0,0,15.015-11.2,18.9-21.86Z" transform="translate(-281.807 477.384)"/><path class="e" d="M302.294,206.888s-15.638,9.65-18.7,34.5c0,0,15.018-11.2,18.907-21.863Z" transform="translate(-278.541 386.18)"/><path class="e" d="M307.069,160.705s-19.666,12.136-23.524,43.389c0,0,18.887-14.092,23.782-27.5Z" transform="translate(-278.625 301.625)"/><path class="e" d="M317.183,30.668s-29.084,17.95-34.788,64.17c0,0,27.932-20.844,35.168-40.665Z" transform="translate(-280.73 63.545)"/><path class="e" d="M308.662,106.723S289,118.862,285.138,150.114c0,0,18.887-14.095,23.779-27.5Z" transform="translate(-275.708 202.791)"/></g><g transform="translate(244.011 -3.104)"><path class="e" d="M273.608-3.079,259.146,983.455l-5.178,7.683L264.5-3.1Z" transform="translate(-225.78 3.104)"/><path class="e" d="M276.28,60.19S251.725,79.743,246.5,125.971c0,0,23.165-9.554,30.607-33.851Z" transform="translate(-239.456 118.985)"/><path class="e" d="M276.444,109.4s-24.555,19.553-29.781,65.781c0,0,23.168-9.554,30.607-33.851Z" transform="translate(-239.156 209.088)"/><path class="e" d="M275.083,251.049S250.528,270.6,245.3,316.83c0,0,23.165-9.554,30.607-33.851Z" transform="translate(-241.647 468.422)"/><path class="e" d="M267.589,306.647s-15.824,12.6-19.19,42.392c0,0,14.93-6.157,19.723-21.815Z" transform="translate(-235.977 570.214)"/><path class="e" d="M267.764,329.1s-15.824,12.6-19.193,42.395c0,0,14.93-6.157,19.725-21.817Z" transform="translate(-235.662 611.33)"/><path class="e" d="M282.618,149.444s-33.381,5.506-38.607,51.731c0,0,31.992,4.5,39.434-19.8Z" transform="translate(-244.011 282.397)"/><path class="e" d="M265.4,201.037s-10.214,24.835-15.44,71.063c0,0,8.824-14.836,16.263-39.134Z" transform="translate(-233.117 376.857)"/><path class="e" d="M261.839,342.051s2.91,17.551.929,25.631-9.7,16.459-9.7,16.459-1.936-24.045,3.338-35.677Z" transform="translate(-228.064 635.034)"/><path class="e" d="M256.784,326.866s14.749,16.965,16.736,33.931A54,54,0,0,1,255.7,343.421Z" transform="translate(-222.616 607.232)"/><path class="e" d="M256.788,295.947s17.526,11.9,19.819,40.668c0,0-16.736-13.656-20.685-26.123Z" transform="translate(-222.204 550.624)"/><path class="e" d="M257.218,238.48s17.526,11.9,19.819,40.668c0,0-16.736-13.653-20.685-26.123Z" transform="translate(-221.416 445.41)"/><path class="e" d="M257.755,185.2s22.047,14.961,24.931,51.151c0,0-21.05-17.175-26.018-32.858Z" transform="translate(-220.838 347.867)"/><path class="e" d="M261.321,35.283s32.6,22.126,36.869,75.646c0,0-31.134-25.4-38.477-48.592Z" transform="translate(-215.263 73.384)"/><path class="e" d="M258.614,122.946s22.047,14.961,24.931,51.151c0,0-21.053-17.172-26.018-32.858Z" transform="translate(-219.265 233.883)"/></g></g><g transform="translate(-69.152 -78.484)"><g transform="translate(351.006 -1.714)"><path class="e" d="M311.425-2.613,286.93,852.829l4.2,6.853L319.316-2.292Z" transform="translate(-272.427 2.613)"/><path class="e" d="M297.814,52.374s20.546,17.866,23.338,58.12c0,0-19.714-9.149-25.251-30.483Z" transform="translate(-256.005 103.286)"/><path class="e" d="M295.825,95.014s20.544,17.866,23.338,58.123c0,0-19.717-9.149-25.251-30.486Z" transform="translate(-259.646 181.354)"/><path class="e" d="M291.688,217.811s20.546,17.866,23.338,58.12c0,0-19.714-9.146-25.251-30.483Z" transform="translate(-267.221 406.178)"/><path class="e" d="M289.719,266.015s13.24,11.513,15.04,37.455c0,0-12.7-5.894-16.275-19.643Z" transform="translate(-269.581 494.433)"/><path class="e" d="M288.727,285.469s13.24,11.516,15.04,37.458c0,0-12.708-5.894-16.275-19.646Z" transform="translate(-271.397 530.05)"/><path class="e" d="M293.918,129.7s28.722,6.024,31.513,46.279c0,0-27.89,2.695-33.427-18.641Z" transform="translate(-263.138 244.85)"/><path class="e" d="M293.918,174.488s7.918,21.905,10.712,62.16c0,0-7.089-13.189-12.626-34.522Z" transform="translate(-263.138 326.86)"/><path class="e" d="M288.305,296.667s-3.179,15.1-1.764,22.174,7.785,14.627,7.785,14.627,2.582-20.764-1.551-31.043Z" transform="translate(-273.803 550.553)"/><path class="e" d="M297.583,283.5s-13.418,14.149-15.776,28.776a46.831,46.831,0,0,0,16.1-14.389Z" transform="translate(-281.807 526.449)"/><path class="e" d="M300.508,256.7s-15.635,9.65-18.7,34.5c0,0,15.015-11.2,18.9-21.86Z" transform="translate(-281.807 477.384)"/><path class="e" d="M302.294,206.888s-15.638,9.65-18.7,34.5c0,0,15.018-11.2,18.907-21.863Z" transform="translate(-278.541 386.18)"/><path class="e" d="M307.069,160.705s-19.666,12.136-23.524,43.389c0,0,18.887-14.092,23.782-27.5Z" transform="translate(-278.625 301.625)"/><path class="e" d="M317.183,30.668s-29.084,17.95-34.788,64.17c0,0,27.932-20.844,35.168-40.665Z" transform="translate(-280.73 63.545)"/><path class="e" d="M308.662,106.723S289,118.862,285.138,150.114c0,0,18.887-14.095,23.779-27.5Z" transform="translate(-275.708 202.791)"/></g><g transform="translate(244.011 -3.104)"><path class="e" d="M273.608-3.079,259.146,983.455l-5.178,7.683L264.5-3.1Z" transform="translate(-225.78 3.104)"/><path class="e" d="M276.28,60.19S251.725,79.743,246.5,125.971c0,0,23.165-9.554,30.607-33.851Z" transform="translate(-239.456 118.985)"/><path class="e" d="M276.444,109.4s-24.555,19.553-29.781,65.781c0,0,23.168-9.554,30.607-33.851Z" transform="translate(-239.156 209.088)"/><path class="e" d="M275.083,251.049S250.528,270.6,245.3,316.83c0,0,23.165-9.554,30.607-33.851Z" transform="translate(-241.647 468.422)"/><path class="e" d="M267.589,306.647s-15.824,12.6-19.19,42.392c0,0,14.93-6.157,19.723-21.815Z" transform="translate(-235.977 570.214)"/><path class="e" d="M267.764,329.1s-15.824,12.6-19.193,42.395c0,0,14.93-6.157,19.725-21.817Z" transform="translate(-235.662 611.33)"/><path class="e" d="M282.618,149.444s-33.381,5.506-38.607,51.731c0,0,31.992,4.5,39.434-19.8Z" transform="translate(-244.011 282.397)"/><path class="e" d="M265.4,201.037s-10.214,24.835-15.44,71.063c0,0,8.824-14.836,16.263-39.134Z" transform="translate(-233.117 376.857)"/><path class="e" d="M261.839,342.051s2.91,17.551.929,25.631-9.7,16.459-9.7,16.459-1.936-24.045,3.338-35.677Z" transform="translate(-228.064 635.034)"/><path class="e" d="M256.784,326.866s14.749,16.965,16.736,33.931A54,54,0,0,1,255.7,343.421Z" transform="translate(-222.616 607.232)"/><path class="e" d="M256.788,295.947s17.526,11.9,19.819,40.668c0,0-16.736-13.656-20.685-26.123Z" transform="translate(-222.204 550.624)"/><path class="e" d="M257.218,238.48s17.526,11.9,19.819,40.668c0,0-16.736-13.653-20.685-26.123Z" transform="translate(-221.416 445.41)"/><path class="e" d="M257.755,185.2s22.047,14.961,24.931,51.151c0,0-21.05-17.175-26.018-32.858Z" transform="translate(-220.838 347.867)"/><path class="e" d="M261.321,35.283s32.6,22.126,36.869,75.646c0,0-31.134-25.4-38.477-48.592Z" transform="translate(-215.263 73.384)"/><path class="e" d="M258.614,122.946s22.047,14.961,24.931,51.151c0,0-21.053-17.172-26.018-32.858Z" transform="translate(-219.265 233.883)"/></g></g><g class="d" transform="translate(1107.715 47.641)"><path class="e" d="M394.885-218.435s64.162,237.2,170.907,246.588,310.63-299.009,310.63-299.009l14.389-.267S681.24,33.049,569.639,36.168,384.286-215.706,384.286-215.706Z"/><g transform="translate(408.139 -250.259)"><path class="e" d="M549.224,45.936c-26.753,0-61.215-36.425-94.686-100.127-29.7-56.527-53.527-124.768-60.708-173.851l2.472-.36C410.98-128.073,491.878,43.434,549.189,43.437c.19,0,.377,0,.567,0C607.81,42.279,723.14-104.759,730.228-118.226c2.512-4.771,6.021-13,9.417-20.952,6.416-15.028,10.477-24.278,12.8-26.043,1.2-.91,4.336-1.3,11.319-2.1,15.986-1.835,45.74-5.246,59.736-20.812,18.78-20.887,13.474-73.847,13.419-74.379l2.484-.262c.232,2.219,5.471,54.607-14.044,76.314-14.631,16.268-44.995,19.752-61.313,21.621-4.584.527-9.323,1.07-10.1,1.615-1.96,1.487-7.533,14.541-12.009,25.031-3.414,8-6.948,16.273-9.5,21.134C725.295-103.485,608.747,44.761,549.8,45.931,549.614,45.933,549.417,45.936,549.224,45.936Z" transform="translate(-393.83 262.775)"/></g><path class="e" d="M510.816-224.223S580.482-13.752,749.342,78.217C881.237,150.057,1414,72.054,1414,72.054V95.977S915.8,155.731,760.911,91.506C580.217,16.585,503.763-214.923,503.763-214.923Z" transform="translate(179.132 70.317)"/><g transform="translate(681.629 -132.227)"><path class="e" d="M855.259,136.037c-36.6,0-68.886-4.176-90.092-15.286-37.41-19.6-103.111-117.3-114.315-134.24-3.986,15.043-20.424,73.814-33.978,73.822a4.6,4.6,0,0,1-.785-.067C602.323,57.889,596.482-45.4,595.152-73.4c-4.074,4.109-13.769,11.8-26.753,8.368-11.532-3.047-14.908-43.49-17.605-88.265-.73-12.109-1.422-23.546-2.234-24.978-.79-.912-6.716-.585-11.482-.32-10.772.6-25.52,1.417-31.449-6.123-9.435-12.009,12.244-30.069,13.171-30.831l1.587,1.929c-.207.172-20.727,17.26-12.791,27.357,5.118,6.521,19.122,5.741,29.342,5.174,7.845-.43,12-.577,13.569,1.25,1.18,1.382,1.647,7.58,2.782,26.393,1.749,29.062,5.008,83.159,15.75,86,15.611,4.134,26.115-9.665,26.218-9.807l2.094-2.809.155,3.5C599.8-25.487,606.989,56.157,616.514,57.8a2.656,2.656,0,0,0,.487.042c9.46,0,24.653-45.465,32.138-74.677l.707-2.752,1.552,2.377c.75,1.15,75.379,115.018,114.93,135.744,84.241,44.143,347.143-22.681,349.789-23.361l.62,2.419C1114.747,98.108,965.513,136.035,855.259,136.037Z" transform="translate(-503.256 215.549)"/></g><path class="e" d="M674.61-80.5s-6.411-4.551-8.368-17.985c0,0,16.17,5.723,20.227,18.327Z" transform="translate(422.736 258.841)"/><path class="e" d="M551.789-141.551s-16.83,12.387-16.83,24.088a109.443,109.443,0,0,0,17.565-15.313Z" transform="translate(225.904 194.267)"/></g></g></svg>